<?xml version="1.0" standalone="yes"?>
<!DOCTYPE svg PUBLIC "-//W3C//DTD SVG 1.1//EN" "http://www.w3.org/Graphics/SVG/1.1/DTD/svg11.dtd">
<svg xmlns="http://www.w3.org/2000/svg" xmlns:xlink="http://www.w3.org/1999/xlink" version="1.1" width="7413.5" height="3411.4" viewBox="-34366,-16378 74135,34114">
<clipPath id="state_clip_path">
<g id="state_outline">
<path id="Nebraska" d="M -33306,-16378 l 284,15 705,37 919,47 189,9 153,8 312,16 66,3 77,4 153,7 526,26 100,4 58,3 26,1 516,22 153,6 213,9 68,2 266,11 30,2 652,25 471,24 159,8 153,7 463,25 7,0 306,8 164,7 340,17 175,6 445,17 434,16 14,1 711,23 955,30 20,0 2299,46 0,40 618,25 414,13 2436,67 670,22 289,9 1731,54 615,18 3667,63 3889,54 643,2 2269,4 1594,-6 0,-10 1619,6 2829,-4 42,-1 940,-12 2283,-4 3138,-48 1453,-13 1193,-14 122,-2 195,-5 35,0 20,38 37,68 10,16 41,71 46,80 22,44 26,45 36,70 18,34 14,22 35,86 21,24 34,36 5,6 28,26 8,9 27,16 39,25 10,5 41,21 10,2 56,10 11,1 25,3 36,-1 51,10 41,8 41,7 35,22 32,16 36,15 29,13 51,32 36,28 31,30 24,31 12,15 40,62 77,61 56,25 42,18 81,30 82,30 118,36 0,8 247,92 17,6 135,35 23,3 56,9 18,3 27,11 42,15 22,12 73,44 68,42 18,13 92,66 23,14 34,17 53,23 8,4 57,25 66,24 47,14 9,2 36,9 6,1 40,1 21,-2 50,-5 26,-4 31,-5 21,2 -17,-29 165,220 125,70 155,158 221,153 93,154 179,69 182,16 175,-36 18,-10 156,-36 119,-46 98,-44 63,-41 52,-53 80,-63 42,-48 163,-237 28,-70 44,-75 30,-106 5,-68 23,-35 0,-38 -11,-32 4,-44 36,-31 118,-63 142,-37 77,-7 23,3 65,50 67,68 164,188 34,22 49,12 66,5 58,-12 59,-21 48,-41 47,-53 71,-85 55,-78 36,-10 48,0 64,16 43,21 75,55 29,32 9,40 18,49 32,46 56,54 35,19 32,5 42,1 38,-12 52,-32 32,-38 56,-89 22,-35 76,-124 36,-28 51,-27 79,-12 53,7 17,11 10,29 6,41 -4,58 7,41 17,33 22,19 32,11 41,2 58,-5 168,-26 167,-31 30,-20 66,-58 54,-61 27,-19 230,-74 55,-16 27,-2 19,5 13,27 0,65 4,42 12,14 61,-3 29,6 27,25 30,43 32,14 53,6 49,-11 87,-60 33,-49 55,-57 55,-35 47,-19 51,1 54,12 114,-5 4,-1 44,-20 21,-35 10,-28 15,-9 100,-17 73,9 90,30 67,18 84,-12 10,5 47,33 35,8 36,-1 5,2 97,88 183,32 152,-41 246,94 19,34 5,170 67,207 80,41 233,20 110,30 6,1 60,18 6,3 42,19 8,6 26,23 14,33 15,25 12,94 9,35 6,25 26,15 32,8 31,7 44,11 42,13 46,15 24,3 28,6 66,15 18,5 108,14 79,8 18,-1 33,-2 51,-7 46,-7 51,-8 82,-5 33,3 13,3 46,-2 51,10 26,5 40,0 26,-10 15,-5 31,4 39,-10 32,4 41,4 19,3 76,40 35,33 7,7 29,44 22,33 7,34 9,21 -4,34 -3,21 -13,37 -4,6 -8,58 -5,35 1,10 50,36 19,11 77,3 40,-15 28,-23 51,-63 16,-13 26,-18 32,-15 41,-21 6,-1 30,2 117,4 23,1 29,7 76,19 52,12 21,4 34,11 62,20 57,18 45,33 28,12 96,74 66,35 10,3 46,6 41,7 41,21 36,42 35,53 1,11 4,48 0,7 1,46 3,22 0,13 6,52 5,39 34,25 7,6 39,28 40,28 51,10 49,12 18,0 46,1 43,2 8,-2 147,-29 23,-4 14,-3 50,-10 14,-2 63,0 18,2 13,0 31,1 36,1 30,0 31,9 36,15 36,10 47,16 10,9 11,19 60,90 -4,8 -61,114 -16,29 -19,21 -26,30 -6,8 -24,37 -26,40 -15,27 -3,13 -17,95 -7,37 34,44 63,81 11,10 85,67 31,31 12,7 66,41 44,29 23,17 44,32 28,22 40,32 60,47 70,70 12,10 18,16 31,26 33,29 19,16 20,34 4,7 18,32 19,34 2,10 9,40 6,44 4,26 -2,20 -8,45 -10,32 -7,18 -2,13 1,13 2,31 49,49 8,5 48,26 38,22 32,-3 17,-1 24,-9 40,-16 29,-19 17,-11 57,-49 5,-4 45,-28 47,-29 10,-6 24,-8 32,-10 24,-8 32,-7 10,-2 77,10 19,6 42,13 36,30 40,35 45,68 10,19 21,31 36,54 31,45 19,22 22,23 38,40 31,15 33,16 8,1 79,0 20,-7 48,-17 29,-11 7,-4 39,-22 59,-21 56,-21 14,1 126,-22 112,-13 94,19 68,17 69,39 45,57 30,70 23,88 3,129 -5,91 -8,70 -26,62 -32,45 -43,52 -18,18 -126,161 -1,183 76,201 -65,126 -15,122 90,158 216,122 79,76 3,15 18,32 13,85 32,184 89,139 34,28 122,67 72,99 27,120 -2,86 56,83 -112,167 -171,34 -3,7 -2,31 7,30 13,34 23,44 27,69 5,30 -2,26 1,20 2,30 -3,25 2,46 0,25 11,40 13,34 5,8 9,36 61,80 123,65 68,63 25,67 24,53 62,69 160,36 82,40 12,23 58,53 26,130 -21,125 -59,131 -10,133 15,110 34,92 12,31 7,13 20,35 102,46 160,-37 43,28 17,6 62,40 8,34 18,29 -3,35 -6,20 -45,67 -78,55 -25,103 3,30 41,52 100,13 74,-141 76,-31 113,3 37,25 18,8 5,12 3,48 4,42 1,38 0,36 18,46 18,34 26,20 28,22 28,3 36,0 36,-10 41,-5 41,-1 44,12 38,3 41,27 41,49 6,38 -11,57 -18,37 -23,39 -10,41 -4,39 -3,35 13,40 14,54 17,43 15,36 0,45 -10,46 -20,35 -26,25 -29,27 -32,14 -33,11 -18,14 -15,21 2,28 3,35 28,39 29,39 45,57 16,38 11,46 3,45 19,49 30,59 28,27 12,11 47,31 51,29 45,25 43,27 20,23 15,36 16,50 1,39 -7,51 -6,62 7,45 20,34 17,29 23,28 38,29 38,32 23,14 30,7 37,13 36,4 32,11 24,19 42,47 15,44 0,60 -10,61 -26,61 -72,120 -54,100 -41,73 -36,61 -27,55 -12,47 -2,49 6,51 25,35 39,27 28,13 62,21 41,19 29,26 32,34 15,49 3,45 -8,31 -19,22 -31,10 -46,10 -45,-2 -50,9 -43,-1 -41,-5 -28,9 -35,23 -29,29 -4,24 -7,31 -5,76 6,20 9,45 29,43 39,43 44,52 49,43 36,57 20,49 11,55 -4,66 -17,51 -15,50 -19,44 -28,33 -39,60 -24,56 -22,50 5,40 16,40 25,41 48,46 40,24 88,48 80,39 32,38 20,50 8,24 -14,27 -14,16 -31,19 -23,20 -27,43 -26,28 -16,40 -7,41 -7,51 0,40 20,55 21,44 52,77 34,38 43,32 40,15 46,0 24,8 5,2 48,15 36,5 35,-5 71,-11 27,-25 25,-34 22,-47 3,-31 2,-51 14,-54 15,-44 48,-34 66,-9 42,12 54,44 35,45 27,65 28,63 18,53 16,61 -10,50 -15,40 -31,31 -40,32 -37,24 -36,32 -25,18 -18,26 -18,35 -5,30 16,51 15,30 30,23 37,22 56,20 57,5 49,9 42,12 42,13 43,27 34,18 46,27 52,1 39,-18 30,-17 43,-4 56,0 36,5 30,12 37,23 24,38 34,43 24,50 -7,45 -13,37 -26,24 -31,30 -23,37 -17,44 -7,54 13,40 15,64 10,64 -5,30 -20,41 -19,35 -12,41 -10,35 0,36 21,39 32,54 23,43 27,44 1,51 -13,41 -13,24 -35,41 -37,27 -35,23 -38,33 -34,18 -15,16 -10,30 5,40 16,45 20,29 48,32 19,20 69,54 69,36 83,20 53,6 51,-4 50,-9 52,7 44,13 8,5 33,21 47,45 25,45 15,40 7,101 -15,77 -27,47 -63,50 -158,87 -18,3 -16,-10 -9,-91 14,-56 33,-68 2,-46 -20,-32 -36,-15 -77,0 -66,31 -21,56 6,95 31,121 36,136 9,38 17,33 15,35 26,35 24,47 25,49 8,45 5,65 -8,41 -27,55 -46,76 -36,61 -18,40 -1,46 -1,60 23,39 38,48 7,0 37,16 39,18 56,-1 60,-2 76,-11 59,-3 35,-3 16,-2 82,0 51,-6 67,20 51,35 25,38 16,28 11,45 -16,35 -25,26 -37,16 -40,4 -32,-14 -40,-16 -44,-5 -5,0 -16,-7 -19,17 -29,27 -10,39 -5,23 -10,38 0,54 9,55 30,58 23,44 24,44 40,52 19,45 7,34 4,46 -7,51 10,70 10,60 13,44 15,58 5,40 -10,51 -20,35 -29,51 -32,35 -25,30 -38,38 -14,33 -2,29 27,74 51,51 3,2 108,100 26,62 0,87 -38,76 -41,118 10,48 26,45 23,21 4,9 31,23 34,23 42,17 58,21 50,19 25,22 32,38 15,39 19,49 2,48 0,46 -10,50 -20,40 -17,47 -14,50 -5,60 -5,45 10,73 16,63 47,96 45,56 47,44 46,45 40,43 12,33 0,101 -15,65 -31,41 -24,27 -37,23 -53,8 -45,19 -40,14 -24,21 -17,40 -10,35 -10,46 12,42 14,33 31,51 32,57 -1,46 16,90 -11,48 -27,60 -7,46 -1,41 10,55 22,49 13,39 30,54 23,44 9,39 1,22 -30,98 -46,62 -225,136 -89,103 -51,166 24,127 35,79 205,95 62,60 92,274 178,103 229,41 174,162 40,79 33,204 156,129 25,60 -35,128 -98,79 -67,85 -5,56 105,212 2,59 -43,134 24,55 56,36 95,21 98,-2 89,-20 40,-17 70,7 37,37 13,23 93,-81 11,-318 59,-43 128,-29 88,138 55,34 35,93 -21,161 -47,73 -313,150 29,54 20,51 3,56 -4,94 -2,86 26,55 130,91 60,36 64,69 36,49 23,48 21,54 6,43 -1,49 -9,37 -33,103 24,79 142,237 36,227 125,144 44,131 -19,73 -38,39 -197,102 -31,79 7,55 50,41 55,9 230,-100 64,-8 100,42 147,107 170,17 79,65 22,55 -37,171 1,44 10,32 23,24 79,36 184,87 277,-11 114,62 55,89 17,72 -5,116 -90,189 7,94 32,77 166,171 154,56 77,67 23,176 44,69 62,44 64,7 39,-3 43,6 46,21 25,27 22,33 11,40 6,48 -3,39 -12,37 -30,31 -45,41 -20,22 -21,37 -10,41 3,42 14,52 10,36 -4,42 -14,37 -28,38 -32,33 -14,37 -13,52 15,74 15,55 29,69 39,58 73,58 65,23 51,9 71,-3 82,-34 70,-27 124,17 115,106 186,65 45,59 19,77 -271,7 -850,42 -97,7 -809,31 -2055,103 -1820,87 -87,4 -1946,85 -1925,66 -31,1 -2897,116 -953,33 -707,22 -2840,81 -297,7 -21,1 -3813,104 -32,1 -926,26 -545,16 -304,6 -2101,34 -1956,37 -1666,29 -249,5 -2312,41 -576,5 -962,8 -171,0 -711,5 -2930,15 -13,0 -3143,5 -1561,-1 -138,0 -4192,-28 -465,-5 -145,-1 -24,-1 -2057,-25 -2548,-41 -200,-3 -401,-7 -353,-8 -1149,-18 -667,-11 -1327,-23 -704,-15 -1599,-37 84,-3836 23,-1006 62,-2868 13,-565 65,-2805 -4794,-145 -280,-10 -2787,-88 -122,-5 -3238,-121 -1596,-65 -4019,-164 14,-243 199,-4121 88,-1893 69,-1466 1,-31 155,-3304 3,-49 45,-949 279,-5827 169,-3559 37,-754 z" />
</g>
</clipPath>
<g stroke="black" fill="none" stroke-linejoin="round" stroke-width="118" clip-path="url(#state_clip_path)">
<use xlink:href="#state_outline" fill="white" stroke-width="518" />
<path id="Adams" d="M 10521,9917 l 943,-2 1004,-21 958,-17 805,-11 41,5 6,977 5,348 0,106 11,468 0,40 53,1919 -564,6 -328,11 -41,0 -923,1 -35,10 -928,11 -974,16 -16,-941 -53,-2806 0,-120 z" />
<path id="Antelope" d="M 13717,-9434 l 3799,-109 25,0 38,974 62,2897 59,1917 -3832,118 -43,-1927 -36,0 z" />
<path id="Arthur" d="M -12128,-1696 l 169,6 -73,3862 -4848,-98 80,-3852 1949,31 962,37 794,17 680,-3 26,-5 z" />
<path id="Banner" d="M -33996,-1889 l 5690,236 -127,2914 -23,479 -66,-6 -886,-44 -681,-23 -5,5 -1244,-52 -2267,-127 -359,-17 -189,-6 88,-1893 z" />
<path id="Blaine" d="M -2489,-5414 l 834,-10 1095,21 875,-15 1069,11 849,15 102,-10 15,1926 0,1907 -1812,0 -747,-1 -123,10 -107,0 -123,-5 -844,15 -144,-10 -819,-6 -122,-5 0,-963 1,-620 0,-101 z" />
<path id="Boone" d="M 13868,-3637 l 3832,-118 70,1936 59,1926 6,484 -450,11 0,177 -1321,23 1,186 -292,6 -5,151 -1771,49 -60,-2904 -41,-5 z" />
<path id="Box_Butte" d="M -28607,-9896 l 685,39 981,40 1253,40 1651,48 941,19 199,16 -28,908 15,51 -29,913 7,999 -33,984 327,12 7,968 -961,-3 -1003,-29 -962,-40 -967,-29 -1585,-78 -323,-16 24,-959 -368,-17 55,-948 45,-985 z" />
<path id="Boyd" d="M 11960,-15628 l 20,38 37,68 10,16 41,71 46,80 22,44 26,45 36,70 18,34 14,22 35,86 21,24 34,36 5,6 28,26 8,9 27,16 39,25 10,5 41,21 10,2 56,10 11,1 25,3 36,-1 51,10 41,8 41,7 35,22 32,16 36,15 29,13 51,32 36,28 31,30 24,31 12,15 40,62 77,61 56,25 42,18 81,30 82,30 118,36 0,55 5,66 17,964 41,5 5,243 -117,-35 -271,-81 -189,11 -251,-15 -71,-10 -67,0 -61,26 -184,66 -169,-15 -143,-25 -240,-25 -261,-61 -286,1 -112,-76 -133,-65 -82,-30 -128,-86 -123,-15 -214,51 -92,15 -143,-20 -128,-96 -189,-141 -82,-35 -67,-5 -71,25 -66,20 -77,21 -118,-61 -127,-65 -47,-76 -76,-55 -128,60 -123,0 -153,-25 -82,-106 -250,-252 -87,-66 -118,-121 -20,0 -143,-35 -143,36 -149,60 -148,107 -87,70 -153,122 -270,76 -123,35 -138,91 -199,21 -102,35 -113,111 -61,41 -205,35 -173,147 -92,-21 -133,81 -16,-1141 36,-5 -17,-996 3138,-48 1453,-13 1193,-14 122,-2 195,-5 z" />
<path id="Brown" d="M 2361,-12554 l 36,3302 102,-1 15,3846 -179,5 -102,10 -849,-15 -1069,-11 -875,15 -1095,-21 2,-3850 -133,10 8,-3877 -118,10 1,-712 61,70 46,26 82,20 56,25 20,5 5,51 21,0 76,-36 36,11 10,30 11,40 35,21 31,5 -5,25 -26,25 0,35 26,41 36,40 61,31 41,-5 41,20 20,20 143,61 174,60 153,26 189,10 82,0 72,-20 46,10 51,25 41,10 56,0 51,15 25,41 52,60 35,11 108,-5 102,0 184,55 133,0 87,36 40,5 57,-41 132,-35 31,15 21,36 15,55 15,46 16,45 56,5 56,-5 66,10 51,51 52,35 56,20 112,31 123,20 71,0 118,5 107,-15 97,60 77,5 133,41 66,15 113,-5 z" />
<path id="Buffalo" d="M 10457,6063 l 64,3854 -36,0 0,120 -102,26 -87,0 -56,5 -113,20 -82,31 -113,35 -66,0 -93,25 -61,10 -108,16 -41,40 -143,76 -57,0 -56,55 -82,15 -77,-15 -41,15 -66,41 -41,20 -149,-10 -138,10 -82,-25 -108,15 -220,-50 -97,40 -57,6 -128,-20 -72,20 -61,30 -303,10 -148,-20 -128,-30 -164,41 -144,-66 -123,30 -220,-9 -225,0 -113,-10 -159,10 -118,-35 -72,5 -199,20 -6,5 -66,-30 -82,-46 -31,-10 -72,-10 -179,-25 -87,51 -51,10 -144,5 -72,10 -128,-10 -159,-10 -46,-25 0,-343 -87,-5 5,-1924 -5,-962 -5,-963 881,-20 942,-6 1204,-5 743,-6 225,5 1690,-37 z" />
<path id="Burt" d="M 30572,-5625 l 7,13 20,35 102,46 160,-37 43,28 17,6 62,40 8,34 18,29 -3,35 -6,20 -45,67 -78,55 -25,103 3,30 41,52 100,13 74,-141 76,-31 113,3 37,25 18,8 5,12 3,48 4,42 1,38 0,36 18,46 18,34 26,20 28,22 28,3 36,0 36,-10 41,-5 41,-1 44,12 38,3 41,27 41,49 6,38 -11,57 -18,37 -23,39 -10,41 -4,39 -3,35 13,40 14,54 17,43 15,36 0,45 -10,46 -20,35 -26,25 -29,27 -32,14 -33,11 -18,14 -15,21 2,28 3,35 28,39 29,39 45,57 16,38 11,46 3,45 19,49 30,59 28,27 12,11 47,31 51,29 45,25 43,27 20,23 15,36 16,50 1,39 -7,51 -6,62 7,45 20,34 17,29 23,28 38,29 38,32 23,14 30,7 37,13 36,4 32,11 24,19 42,47 15,44 0,60 -10,61 -26,61 -72,120 -54,100 -41,73 -36,61 -27,55 -12,47 -2,49 6,51 25,35 39,27 28,13 62,21 41,19 29,26 32,34 15,49 3,45 -8,31 -19,22 -31,10 -46,10 -45,-2 -50,9 -43,-1 -41,-5 -28,9 -35,23 -29,29 -4,24 -7,31 -5,76 6,20 -2702,92 -28,-666 -921,39 -72,-1947 -44,-1085 506,-32 138,15 108,-61 1263,-26 -11,-343 z" />
<path id="Butler" d="M 21733,1946 l 206,75 111,-42 94,13 46,22 24,48 148,47 334,-5 136,10 294,-98 149,86 99,-2 171,-64 39,26 60,-7 152,-86 214,-19 80,-57 50,-82 167,-110 253,-38 94,19 132,-45 278,-288 318,-167 200,-27 27,660 -15,0 17,963 99,2903 -26,0 -2883,105 -958,23 z" />
<path id="Cass" d="M 29460,5900 l 957,-34 -9,-338 252,-10 61,88 88,80 63,44 90,32 149,20 11,3 134,5 16,4 30,19 54,72 43,62 27,24 38,44 52,7 132,-19 220,-102 130,-68 49,-16 48,-10 20,-14 31,-36 78,-114 179,-217 27,-17 94,-47 160,-68 137,-82 29,-7 91,-12 118,-1 61,3 106,25 40,12 87,51 113,40 194,-96 133,4 205,-41 184,-11 166,77 51,51 3,2 108,100 26,62 0,87 -38,76 -41,118 10,48 26,45 23,21 4,9 31,23 34,23 42,17 58,21 50,19 25,22 32,38 15,39 19,49 2,48 0,46 -10,50 -20,40 -17,47 -14,50 -5,60 -5,45 10,73 16,63 47,96 45,56 47,44 46,45 40,43 12,33 0,101 -15,65 -31,41 -24,27 -37,23 -53,8 -45,19 -40,14 -24,21 -17,40 -10,35 -10,46 12,42 14,33 31,51 32,57 -1,46 16,90 -11,48 -27,60 -7,46 -1,41 10,55 22,49 13,39 30,54 23,44 9,39 1,22 -4359,215 -963,39 -48,-968 -33,-957 z" />
<path id="Cedar" d="M 20285,-14381 l 27,-2 19,5 13,27 0,65 4,42 12,14 61,-3 29,6 27,25 30,43 32,14 53,6 49,-11 87,-60 33,-49 55,-57 55,-35 47,-19 51,1 54,12 114,-5 4,-1 44,-20 21,-35 10,-28 15,-9 100,-17 73,9 90,30 67,18 84,-12 10,5 47,33 35,8 36,-1 5,2 97,88 183,32 152,-41 246,94 19,34 5,170 67,207 80,41 233,20 110,30 6,1 60,18 6,3 42,19 8,6 26,23 14,33 15,25 12,94 9,35 6,25 26,15 32,8 31,7 44,11 42,13 46,15 24,3 28,6 66,15 18,5 108,14 79,8 18,-1 33,-2 51,-7 46,-7 51,-8 82,-5 33,3 13,3 46,-2 51,10 0,66 22,611 106,2898 13,964 -2879,85 -33,-964 -966,33 -74,-2959 -50,-1576 z" />
<path id="Chase" d="M -11634,9932 l -51,3838 -795,4 -4828,-82 -385,-16 23,-1006 62,-2868 210,1 784,17 2905,58 154,5 953,22 814,17 z" />
<path id="Cherry" d="M -17256,-15741 l 670,22 289,9 1731,54 615,18 3667,63 3889,54 643,2 2269,4 1594,-6 -6,1678 -1,712 118,-10 -8,3877 133,-10 -2,3850 -834,10 -2880,-18 -946,-21 -947,-22 -941,-11 -215,-6 -972,-27 -752,-11 -966,-27 -190,-6 -639,-26 -128,5 -199,-1 -1959,-50 -722,-7 -245,0 -721,-48 -246,0 -716,-17 -271,-11 28,-959 58,-2912 -220,-6 28,-949 69,-2848 -148,0 57,-1935 z" />
<path id="Cheyenne" d="M -28433,1261 l 6107,196 -22,474 261,11 -77,1925 -46,1920 -92,0 -22,500 -280,-10 -2787,-88 -122,-5 -3238,-121 27,-488 51,0 151,-3841 66,6 z" />
<path id="Clay" d="M 18104,9788 l 12,978 26,956 32,973 32,956 -963,23 -954,6 -1911,54 -31,-5 -53,-1919 0,-40 -11,-468 0,-106 -5,-348 -6,-977 2869,-56 z" />
<path id="Colfax" d="M 22591,-1973 l 1914,-66 951,-29 110,2905 16,318 -200,27 -318,167 -278,288 -132,45 -94,-19 -253,38 -167,110 -50,82 -80,57 -214,19 -152,86 -60,7 -39,-26 -171,64 -99,2 -149,-86 -294,98 -136,-10 5,-179 z" />
<path id="Cuming" d="M 24388,-5878 l 1611,-71 1207,-55 1007,-34 44,847 44,1085 72,1947 -36,0 -931,29 -496,17 -492,17 -936,28 -26,0 -951,29 z" />
<path id="Custer" d="M 6204,-1580 l 51,0 57,2883 16,953 72,0 5,968 -10,1935 -15,947 -942,6 -881,20 -932,11 -1941,0 -98,-10 -860,4 -103,0 -865,-5 -933,0 -773,-1 -195,-5 -148,0 42,-1900 6,-977 -10,-948 -5,-20 -118,-5 1,-1911 -9,-963 15,-968 819,6 144,10 844,-15 123,5 107,0 123,-10 747,1 3752,0 z" />
<path id="Dakota" d="M 27496,-10841 l -8,45 -10,32 -7,18 -2,13 1,13 2,31 49,49 8,5 48,26 38,22 32,-3 17,-1 24,-9 40,-16 29,-19 17,-11 57,-49 5,-4 45,-28 47,-29 10,-6 24,-8 32,-10 24,-8 32,-7 10,-2 77,10 19,6 42,13 36,30 40,35 45,68 10,19 21,31 36,54 31,45 19,22 22,23 38,40 31,15 33,16 8,1 79,0 20,-7 48,-17 29,-11 7,-4 39,-22 59,-21 56,-21 14,1 126,-22 112,-13 94,19 68,17 69,39 45,57 30,70 23,88 3,129 -5,91 -8,70 -26,62 -32,45 -43,52 -18,18 -126,161 -1,183 76,201 -65,126 -15,122 90,158 216,122 79,76 3,15 18,32 13,85 32,184 89,139 -3047,89 -72,-1757 41,-5 -34,-980 716,-38 z" />
<path id="Dawes" d="M -24723,-15986 l 14,1 711,23 955,30 20,0 -106,2378 149,6 -24,960 -14,959 -78,1919 -941,-19 -1651,-48 -1253,-40 -981,-40 -685,-39 -276,-6 40,-975 39,-954 12,-283 28,-646 18,-561 12,-444 -158,-6 39,-1940 -3,-450 68,2 266,11 30,2 652,25 471,24 159,8 153,7 463,25 7,0 306,8 164,7 340,17 175,6 445,17 z" />
<path id="Dawson" d="M -2143,6126 l 195,5 773,1 933,0 865,5 103,0 860,-4 98,10 1941,0 932,-11 5,963 5,962 -5,1924 87,5 0,343 -61,-36 -82,-10 -174,-25 -282,-5 -256,-10 -226,-40 -92,0 -236,30 -128,10 -205,-65 -174,-20 -159,-40 -143,-46 -195,-80 -574,5 -507,-6 -738,25 -543,-20 -113,-5 -958,-10 -861,-11 -97,5 -14,-1894 0,-957 z" />
<path id="Deuel" d="M -17514,3993 l -35,1925 31,5 -11,489 -1,20 -4794,-145 22,-500 92,0 46,-1920 3538,102 z" />
<path id="Dixon" d="M 24142,-13319 l 26,5 40,0 26,-10 15,-5 31,4 39,-10 32,4 41,4 19,3 76,40 35,33 7,7 29,44 22,33 7,34 9,21 -4,34 -3,21 -13,37 -4,6 -8,58 -5,35 1,10 50,36 19,11 77,3 40,-15 28,-23 51,-63 16,-13 26,-18 32,-15 41,-21 6,-1 30,2 117,4 23,1 29,7 76,19 52,12 21,4 34,11 62,20 57,18 45,33 28,12 96,74 66,35 10,3 46,6 41,7 41,21 36,42 35,53 1,11 4,48 0,7 1,46 3,22 0,13 6,52 5,39 34,25 7,6 39,28 40,28 51,10 49,12 18,0 46,1 43,2 8,-2 147,-29 23,-4 14,-3 50,-10 14,-2 63,0 18,2 13,0 31,1 36,1 30,0 31,9 36,15 36,10 47,16 10,9 11,19 60,90 -4,8 -61,114 -16,29 -19,21 -26,30 -6,8 -24,37 -26,40 -15,27 -3,13 -17,95 -7,37 34,44 63,81 11,10 85,67 31,31 12,7 66,41 44,29 23,17 44,32 28,22 40,32 60,47 70,70 12,10 18,16 31,26 33,29 19,16 20,34 4,7 18,32 19,34 2,10 9,40 6,44 4,26 -2,20 -126,5 -716,38 34,980 -41,5 72,1757 6,156 -481,22 -327,11 -635,18 -281,1 -680,37 -38,-969 -13,-964 -106,-2898 -22,-611 z" />
<path id="Dodge" d="M 28373,-2159 l 921,-39 28,666 76,1644 -5,121 87,0 12,348 133,4 5,106 108,-6 5,147 5,55 154,0 6,151 168,-11 6,161 307,-11 17,469 -1198,50 -124,5 -39,-33 -34,33 -72,-24 -43,-96 -409,-246 -174,-48 -477,8 -434,114 -168,0 -145,-39 -158,-144 -152,-51 -239,24 -8,4 -81,57 -79,39 -36,3 -42,-6 -119,-57 -155,11 -63,-45 -192,-30 -183,-20 -16,-318 -110,-2905 26,0 936,-28 492,-17 496,-17 931,-29 z" />
<path id="Douglas" d="M 30406,1646 l 3286,-140 0,36 21,39 32,54 23,43 27,44 1,51 -13,41 -13,24 -35,41 -37,27 -35,23 -38,33 -34,18 -15,16 -10,30 5,40 16,45 20,29 48,32 19,20 69,54 69,36 83,20 53,6 51,-4 50,-9 52,7 44,13 8,5 33,21 47,45 25,45 15,40 7,101 -15,77 -27,47 -63,50 -158,87 -18,3 -16,-10 -9,-91 14,-56 33,-68 2,-46 -20,-32 -36,-15 -77,0 -66,31 -21,56 6,95 31,121 36,136 9,38 17,33 15,35 26,35 24,47 25,49 8,45 5,65 -8,41 -27,55 -46,76 -36,61 -18,40 -1,46 -1,60 23,39 38,48 -3406,139 0,-3 -43,-58 -43,-25 -53,-30 -61,-33 -24,-30 -57,-94 -31,-105 -25,-113 23,-66 92,-168 6,-37 0,-42 -20,-44 -9,-16 1,-12 -93,-166 -186,-156 -181,-126 -21,-29 -19,-34 -2,-19 15,-57 -2,-118 -16,-59 -38,-124 -25,-58 -30,-59 -26,-25 -52,-20 -112,-40 -133,-80 -49,-39 -44,-77 -57,-51 z" />
<path id="Dundy" d="M -11685,13770 l 159,11 -27,397 -24,3453 -401,-7 -353,-8 -1149,-18 -667,-11 -1327,-23 -704,-15 -1599,-37 84,-3836 385,16 4828,82 z" />
<path id="Fillmore" d="M 21957,9678 l 92,2902 21,956 -968,38 -2870,72 -26,5 -32,-956 -32,-973 -26,-956 -12,-978 958,-22 z" />
<path id="Franklin" d="M 10528,13790 l 11,976 32,2891 -2312,41 -576,5 -962,8 -32,-3863 964,-26 1917,-31 21,5 z" />
<path id="Frontier" d="M -126,9996 l -6,1949 5,947 -959,20 10,962 -876,4 -974,0 -144,-16 -779,5 -1132,-6 -846,-1 -82,0 -354,-1 -20,0 -113,5 -318,0 -159,-1 -32,-3742 36,-156 4714,10 97,-5 861,11 958,10 z" />
<path id="Furnas" d="M -1076,13874 l 113,-10 846,5 958,10 964,0 953,-4 98,5 40,3851 -3143,5 -1561,-1 -115,0 -29,-3857 z" />
<path id="Gage" d="M 29677,11366 l 86,1914 33,972 113,2886 -31,1 -2897,116 -953,33 -707,22 707,-28 -114,-3858 21,0 -55,-1914 979,-38 1911,-77 z" />
<path id="Garden" d="M -17397,-4755 l -84,2950 501,17 180,10 -80,3852 -584,4 -50,1915 -1112,-24 -3538,-102 77,-1925 -261,-11 22,-474 122,-3373 -236,-6 -70,-374 -19,-625 98,-1932 2634,70 978,-2 951,13 z" />
<path id="Garfield" d="M 9978,-5482 l 27,1926 37,1932 -1909,17 -962,21 -916,6 -51,0 -26,-1937 10,-1004 -11,-918 2803,-22 z" />
<path id="Gosper" d="M -126,9996 l 543,20 738,-25 507,6 574,-5 195,80 143,46 159,40 5,816 -5,967 5,977 -10,257 30,700 -953,4 -964,0 -958,-10 -846,-5 -113,10 -10,-962 959,-20 -5,-947 z" />
<path id="Grant" d="M -16873,-5707 l 716,17 246,0 721,48 245,0 722,7 1959,50 199,1 -63,3888 -261,-5 -26,5 -680,3 -794,-17 -962,-37 -1949,-31 -180,-10 -501,-17 84,-2950 491,21 z" />
<path id="Greeley" d="M 10099,-1624 l 3797,-91 41,5 60,2904 16,948 -2831,64 -963,12 -41,0 -16,-948 z" />
<path id="Hall" d="M 10457,6063 l 1727,-38 1946,-18 47,967 16,968 38,1924 -805,11 -958,17 -1004,21 -943,2 z" />
<path id="Hamilton" d="M 17943,4517 l 40,1406 121,3865 -963,27 -2869,56 -41,-5 -38,-1924 319,-361 210,-297 221,-156 176,-163 319,-425 173,-120 24,41 68,-50 120,-46 171,-218 217,-184 -17,-20 176,-196 338,-269 31,48 89,-19 227,-98 55,-48 -10,-17 162,-48 166,-83 231,-252 216,-314 z" />
<path id="Harlan" d="M 2856,13880 l 861,-6 102,5 1733,-15 87,-10 92,0 769,-11 189,5 32,3863 -171,0 -711,5 -2930,15 -13,0 z" />
<path id="Hayes" d="M -10809,9944 l 143,5 815,-3 138,0 2737,14 107,5 -36,156 32,3742 -804,-21 -2870,-39 -979,-22 -159,-11 51,-3838 z" />
<path id="Hitchcock" d="M -6873,13863 l 159,1 -34,3837 -24,-1 -2057,-25 -2548,-41 -200,-3 24,-3453 27,-397 979,22 2870,39 z" />
<path id="Holt" d="M 5821,-13404 l 133,-81 92,21 173,-147 205,-35 61,-41 113,-111 102,-35 199,-21 138,-91 123,-35 270,-76 153,-122 87,-70 148,-107 149,-60 143,-36 143,35 20,0 118,121 87,66 250,252 82,106 153,25 123,0 128,-60 76,55 47,76 127,65 118,61 77,-21 66,-20 71,-25 67,5 82,35 189,141 128,96 143,20 92,-15 214,-51 123,15 128,86 82,30 133,65 112,76 286,-1 261,61 240,25 143,25 169,15 184,-66 61,-26 67,0 71,10 251,15 189,-11 271,81 117,35 22,712 50,2913 46,-10 72,3870 -2839,65 -972,17 -998,21 -2803,22 -108,0 -32,-3507 0,-318 -71,-5 -53,-3887 -87,5 z" />
<path id="Hooker" d="M -7262,-5475 l -21,974 24,988 -11,949 -27,968 -2881,-55 -962,-37 -819,-2 -169,-6 63,-3888 128,-5 639,26 190,6 966,27 752,11 972,27 215,6 z" />
<path id="Howard" d="M 14013,2142 l 36,-1 16,711 11,499 54,2656 -1946,18 -1727,38 -215,0 -12,-2888 -11,-957 963,-12 z" />
<path id="Jefferson" d="M 25914,13424 l 114,3858 -707,28 -2840,81 -297,7 -21,1 -93,-3863 974,-17 z" />
<path id="Johnson" d="M 33018,11217 l 161,2901 -2420,106 -963,28 -33,-972 -86,-1914 974,-34 958,-44 z" />
<path id="Kearney" d="M 10485,10037 l 53,2806 16,941 -26,6 -937,6 -21,-5 -1917,31 -964,26 -36,-2911 5,-513 220,9 123,-30 144,66 164,-41 128,30 148,20 303,-10 61,-30 72,-20 128,20 57,-6 97,-40 220,50 108,-15 82,25 138,-10 149,10 41,-20 66,-41 41,-15 77,15 82,-15 56,-55 57,0 143,-76 41,-40 108,-16 61,-10 93,-25 66,0 113,-35 82,-31 113,-20 56,-5 87,0 z" />
<path id="Keith" d="M -12032,2172 l 1131,12 -46,3855 169,16 -1,473 -958,2 -5792,-118 11,-489 -31,-5 35,-1925 50,-1915 584,-4 z" />
<path id="Keya_Paha" d="M -1889,-15531 l 1619,6 2829,-4 42,-1 940,-12 2283,-4 17,996 -36,5 16,1141 -194,91 -164,11 -107,20 -51,50 -92,86 -281,5 -41,-55 -46,15 -56,46 -46,60 -46,30 -113,-5 -97,71 -117,96 -31,46 -66,35 -62,-10 -46,10 -87,136 -25,10 -36,-5 -46,36 -10,50 -31,5 -71,-5 -164,71 -133,56 -82,10 -46,-41 -153,-25 -169,36 -209,-11 -21,-5 -102,-30 -51,-60 -143,-36 -107,-30 -118,86 -107,5 -113,5 -66,-15 -133,-41 -77,-5 -97,-60 -107,15 -118,-5 -71,0 -123,-20 -112,-31 -56,-20 -52,-35 -51,-51 -66,-10 -56,5 -56,-5 -16,-45 -15,-46 -15,-55 -21,-36 -31,-15 -132,35 -57,41 -40,-5 -87,-36 -133,0 -184,-55 -102,0 -108,5 -35,-11 -52,-60 -25,-41 -51,-15 -56,0 -41,-10 -51,-25 -46,-10 -72,20 -82,0 -189,-10 -153,-26 -174,-60 -143,-61 -20,-20 -41,-20 -41,5 -61,-31 -36,-40 -26,-41 0,-35 26,-25 5,-25 -31,-5 -35,-21 -11,-40 -10,-30 -36,-11 -76,36 -21,0 -5,-51 -20,-5 -56,-25 -82,-20 -46,-26 -61,-70 6,-1678 z" />
<path id="Kimball" d="M -28522,1734 l -151,3841 -51,0 -27,488 -1596,-65 -4019,-164 14,-243 199,-4121 189,6 359,17 2267,127 1244,52 5,-5 681,23 z" />
<path id="Knox" d="M 19063,-14256 l 36,-28 51,-27 79,-12 53,7 17,11 10,29 6,41 -4,58 7,41 17,33 22,19 32,11 41,2 58,-5 168,-26 167,-31 30,-20 66,-58 54,-61 27,-19 230,-74 55,-16 -4,220 50,1576 74,2959 -946,23 -21,0 -966,38 -931,22 -25,0 -3799,109 -46,10 -50,-2913 -22,-712 -5,-243 -41,-5 -17,-964 -5,-66 0,-47 247,92 17,6 135,35 23,3 56,9 18,3 27,11 42,15 22,12 73,44 68,42 18,13 92,66 23,14 34,17 53,23 8,4 57,25 66,24 47,14 9,2 36,9 6,1 40,1 21,-2 50,-5 26,-4 31,-5 21,2 -17,-29 165,220 125,70 155,158 221,153 93,154 179,69 182,16 175,-36 18,-10 156,-36 119,-46 98,-44 63,-41 52,-53 80,-63 42,-48 163,-237 28,-70 44,-75 30,-106 5,-68 23,-35 0,-38 -11,-32 4,-44 36,-31 118,-63 142,-37 77,-7 23,3 65,50 67,68 164,188 34,22 49,12 66,5 58,-12 59,-21 48,-41 47,-53 71,-85 55,-78 36,-10 48,0 64,16 43,21 75,55 29,32 9,40 18,49 32,46 56,54 35,19 32,5 42,1 38,-12 52,-32 32,-38 56,-89 22,-35 z" />
<path id="Lancaster" d="M 25684,5681 l 26,0 983,-28 922,-24 21,-5 1818,-72 6,348 17,650 33,957 48,968 32,715 87,2176 -907,29 -1911,77 -979,38 -48,-977 -32,-962 25,0 -98,-2907 z" />
<path id="Lincoln" d="M -6242,2262 l 2904,3 133,0 829,11 118,5 5,20 10,948 -6,977 -42,1900 148,0 -26,998 0,957 14,1894 -4714,-10 -107,-5 -2737,-14 -138,0 -815,3 -143,-5 22,-947 8,-2469 1,-473 -169,-16 46,-3855 1787,29 138,10 z" />
<path id="Logan" d="M -2491,-1571 l 122,5 -15,968 9,963 -1,1911 -829,-11 -133,0 -2904,-3 1,-958 60,-2899 2748,18 118,6 z" />
<path id="Loup" d="M 6177,-5439 l 11,918 -10,1004 26,1937 -1914,11 -1940,0 0,-1907 -15,-1926 179,-5 808,-6 814,-10 997,-10 936,-6 z" />
<path id="Madison" d="M 21487,-5793 l 66,1932 6,666 59,1250 -3848,126 -70,-1936 -59,-1917 2890,-83 z" />
<path id="McPherson" d="M -7297,-1596 l 978,-4 138,5 -60,2899 -1,958 -2734,-39 -138,-10 -1787,-29 -1131,-12 73,-3862 819,2 962,37 z" />
<path id="Merrick" d="M 18913,2031 l 890,-28 27,686 0,181 -26,23 -214,66 -182,-4 -52,23 -512,522 -266,186 -128,135 -190,311 -60,60 35,52 -291,271 -1,2 -68,130 -216,314 -231,252 -166,83 -162,48 10,17 -55,48 -227,98 -89,19 -31,-48 -338,269 -176,196 17,20 -217,184 -171,218 -120,46 -68,50 -24,-41 -173,120 -319,425 -176,163 -221,156 -210,297 -319,361 -16,-968 -47,-967 -54,-2656 -11,-499 -16,-711 97,0 27,1447 1455,-13 -11,-176 410,-16 -6,-166 1311,12 -10,-191 583,-7 963,-52 67,-1 z" />
<path id="Morrill" d="M -22631,-4859 l 200,6 -98,1932 19,625 70,374 236,6 -122,3373 -6107,-196 127,-2914 0,-21 17,-484 62,0 118,-2880 1585,78 967,29 962,40 1003,29 z" />
<path id="Nance" d="M 17835,591 l 1039,-32 39,1472 22,947 -67,1 -963,52 -583,7 10,191 -1311,-12 6,166 -410,16 11,176 -1455,13 -27,-1447 -97,0 -36,1 -16,-948 1771,-49 5,-151 292,-6 -1,-186 1321,-23 0,-177 z" />
<path id="Nemaha" d="M 36060,11069 l 13,23 93,-81 11,-318 59,-43 128,-29 88,138 55,34 35,93 -21,161 -47,73 -313,150 29,54 20,51 3,56 -4,94 -2,86 26,55 130,91 60,36 64,69 36,49 23,48 21,54 6,43 -1,49 -9,37 -33,103 24,79 142,237 36,227 125,144 44,131 -19,73 -38,39 -197,102 -31,79 7,55 50,41 55,9 230,-100 64,-8 100,42 147,107 170,17 79,65 22,55 -37,171 1,44 10,32 23,24 -3887,186 -471,22 -161,-2901 2828,-143 z" />
<path id="Nuckolls" d="M 18232,13646 l 86,3858 -926,26 -545,16 -304,6 -2101,34 -64,-3852 1911,-54 954,-6 963,-23 z" />
<path id="Otoe" d="M 29558,8475 l 963,-39 4359,-215 -30,98 -46,62 -225,136 -89,103 -51,166 24,127 35,79 205,95 62,60 92,274 178,103 229,41 174,162 40,79 33,204 156,129 25,60 -35,128 -98,79 -67,85 -5,56 105,212 2,59 -43,134 24,55 56,36 95,21 98,-2 89,-20 40,-17 70,7 37,37 -214,5 -2828,143 -1409,71 -958,44 -974,34 -87,-2176 z" />
<path id="Pawnee" d="M 33179,14118 l 471,-22 102,1934 28,957 -1946,85 -1925,66 -113,-2886 963,-28 z" />
<path id="Perkins" d="M -10779,6528 l -8,2469 -22,947 -825,-12 -154,-10 -814,-17 -953,-22 -154,-5 -2905,-58 -784,-17 -210,-1 13,-565 65,-2805 1,-20 5792,118 z" />
<path id="Phelps" d="M 4649,10329 l 46,25 159,10 128,10 72,-10 144,-5 51,-10 87,-51 179,25 72,10 31,10 82,46 66,30 6,-5 199,-20 72,-5 118,35 159,-10 113,10 225,0 -5,513 36,2911 -189,-5 -769,11 -92,0 -87,10 -1733,15 -102,-5 -861,6 -98,-5 -30,-700 10,-257 -5,-977 5,-967 -5,-816 174,20 205,65 128,-10 236,-30 92,0 226,40 256,10 282,5 174,25 82,10 z" />
<path id="Pierce" d="M 17541,-9543 l 931,-22 966,-38 21,0 946,-23 966,-33 33,964 83,2902 -956,38 -2890,83 -62,-2897 z" />
<path id="Platte" d="M 21618,-1945 l 973,-28 110,3898 -5,179 -334,5 -148,-47 -24,-48 -46,-22 -94,-13 -111,42 -206,-75 -136,25 -100,96 -317,114 -124,78 -216,62 -53,22 -40,-1 -59,-24 -237,37 -396,286 -225,48 -27,-686 -890,28 -39,-1472 -1039,32 -6,-484 -59,-1926 z" />
<path id="Polk" d="M 19830,2689 l 225,-48 396,-286 237,-37 59,24 40,1 53,-22 216,-62 124,-78 317,-114 100,-96 136,-25 110,3863 -968,27 -389,1 -574,27 -1398,44 -531,15 -40,-1406 1,-2 291,-271 -35,-52 60,-60 190,-311 128,-135 266,-186 512,-522 52,-23 182,4 214,-66 26,-23 z" />
<path id="Red_Willow" d="M -6714,13864 l 318,0 113,-5 20,0 354,1 82,0 846,1 1132,6 779,-5 144,16 974,0 29,3857 -23,0 -4192,-28 -465,-5 -145,-1 z" />
<path id="Richardson" d="M 37537,13910 l 79,36 184,87 277,-11 114,62 55,89 17,72 -5,116 -90,189 7,94 32,77 166,171 154,56 77,67 23,176 44,69 62,44 64,7 39,-3 43,6 46,21 25,27 22,33 11,40 6,48 -3,39 -12,37 -30,31 -45,41 -20,22 -21,37 -10,41 3,42 14,52 10,36 -4,42 -14,37 -28,38 -32,33 -14,37 -13,52 15,74 15,55 29,69 39,58 73,58 65,23 51,9 71,-3 82,-34 70,-27 124,17 115,106 186,65 45,59 19,77 -271,7 -850,42 -97,7 -809,31 -2055,103 -1820,87 -87,4 -28,-957 -102,-1934 z" />
<path id="Rock" d="M 2361,-12554 l 118,-86 107,30 143,36 51,60 102,30 21,5 209,11 169,-36 153,25 46,41 82,-10 133,-56 164,-71 71,5 31,-5 10,-50 46,-36 36,5 25,-10 87,-136 46,-10 62,10 66,-35 31,-46 117,-96 97,-71 113,5 46,-30 46,-60 56,-46 46,-15 41,55 281,-5 92,-86 51,-50 107,-20 164,-11 194,-91 5,253 87,-5 53,3887 71,5 0,318 32,3507 -936,6 -997,10 -814,10 -808,6 -15,-3846 -102,1 z" />
<path id="Saline" d="M 25800,9571 l 32,962 48,977 55,1914 -21,0 -2870,95 -974,17 -21,-956 -92,-2902 1926,-56 16,0 953,-28 z" />
<path id="Sarpy" d="M 30523,3909 l 3406,-139 7,0 37,16 39,18 56,-1 60,-2 76,-11 59,-3 35,-3 16,-2 82,0 51,-6 67,20 51,35 25,38 16,28 11,45 -16,35 -25,26 -37,16 -40,4 -32,-14 -40,-16 -44,-5 -5,0 -16,-7 -19,17 -29,27 -10,39 -5,23 -10,38 0,54 9,55 30,58 23,44 24,44 40,52 19,45 7,34 4,46 -7,51 10,70 10,60 13,44 15,58 5,40 -10,51 -20,35 -29,51 -32,35 -25,30 -38,38 -14,33 -2,29 27,74 -166,-77 -184,11 -205,41 -133,-4 -194,96 -113,-40 -87,-51 -40,-12 -106,-25 -61,-3 -118,1 -91,12 -29,7 -137,82 -160,68 -94,47 -27,17 -179,217 -78,114 -31,36 -20,14 -48,10 -49,16 -130,68 -220,102 -132,19 -52,-7 -38,-44 -27,-24 -43,-62 -54,-72 -30,-19 -16,-4 -134,-5 -11,-3 -149,-20 -90,-32 -63,-44 -88,-80 -61,-88 -42,-112 -139,-287 -8,-25 1,-78 11,-53 14,-25 70,-69 73,-51 27,-33 20,-22 0,-27 -4,-34 -17,-46 -46,-69 -2,-41 0,-40 16,-64 5,-41 -11,-80 -23,-64 -26,-121 -21,-86 z" />
<path id="Saunders" d="M 29208,1696 l 57,51 44,77 49,39 133,80 112,40 52,20 26,25 30,59 25,58 38,124 16,59 2,118 -15,57 2,19 19,34 21,29 181,126 186,156 93,166 -1,12 9,16 20,44 0,42 -6,37 -92,168 -23,66 25,113 31,105 57,94 24,30 61,33 53,30 43,25 43,58 0,3 35,141 21,86 26,121 23,64 11,80 -5,41 -16,64 0,40 2,41 46,69 17,46 4,34 0,27 -20,22 -27,33 -73,51 -70,69 -14,25 -11,53 -1,78 8,25 139,287 42,112 -252,10 9,338 -957,34 -6,-348 -1818,72 -21,5 -922,24 -983,28 -99,-2903 -17,-963 15,0 -27,-660 183,20 192,30 63,45 155,-11 119,57 42,6 36,-3 79,-39 81,-57 8,-4 239,-24 152,51 158,144 145,39 168,0 434,-114 477,-8 174,48 409,246 43,96 72,24 34,-33 39,33 z" />
<path id="Scotts_Bluff" d="M -28432,-5054 l 323,16 -118,2880 -62,0 -17,484 0,21 -5690,-236 1,-31 155,-3304 3,-49 551,33 962,40 1928,81 998,40 z" />
<path id="Seward" d="M 21843,5809 l 958,-23 2883,-105 43,983 98,2907 -25,0 -948,23 -953,28 -16,0 -1926,56 -71,-2887 z" />
<path id="Sheridan" d="M -23023,-15932 l 2299,46 0,40 618,25 414,13 2436,67 -16,414 -57,1935 148,0 -69,2848 -28,949 220,6 -58,2912 -28,959 271,11 -33,973 -491,-21 -471,-17 -951,-13 -978,2 -2634,-70 -200,-6 -7,-968 -327,-12 33,-984 -7,-999 29,-913 -15,-51 28,-908 -199,-16 78,-1919 14,-959 24,-960 -149,-6 z" />
<path id="Sherman" d="M 10219,2218 l 11,957 12,2888 -1690,37 -225,-5 -743,6 -1204,5 15,-947 10,-1935 -5,-968 947,5 896,-11 1034,-6 901,-26 z" />
<path id="Sioux" d="M -28856,-16161 l 3,450 -39,1940 158,6 -12,444 -18,561 -28,646 -12,283 -39,954 -40,975 276,6 -69,1933 -45,985 -55,948 368,17 -24,959 -966,-25 -998,-40 -1928,-81 -962,-40 -551,-33 45,-949 279,-5827 169,-3559 37,-754 1,-16 284,15 705,37 919,47 189,9 153,8 312,16 66,3 77,4 153,7 526,26 100,4 58,3 26,1 516,22 153,6 z" />
<path id="Stanton" d="M 21487,-5793 l 967,-18 1934,-67 117,3839 -1914,66 -973,28 -59,-1250 -6,-666 z" />
<path id="Thayer" d="M 22070,13536 l 93,3863 -3813,104 -32,1 -86,-3858 2870,-72 z" />
<path id="Thomas" d="M -7262,-5475 l 947,22 946,21 2880,18 -1,2159 0,101 -1,620 0,963 -824,0 -118,-6 -2748,-18 -138,-5 -978,4 27,-968 11,-949 -24,-988 z" />
<path id="Thurston" d="M 29766,-8145 l 34,28 122,67 72,99 27,120 -2,86 56,83 -112,167 -171,34 -3,7 -2,31 7,30 13,34 23,44 27,69 5,30 -2,26 1,20 2,30 -3,25 2,46 0,25 11,40 13,34 5,8 9,36 61,80 123,65 68,63 25,67 24,53 62,69 160,36 82,40 12,23 58,53 26,130 -21,125 -59,131 -10,133 15,110 34,92 12,31 -311,-13 11,343 -1263,26 -108,61 -138,-15 -506,32 -44,-847 -1007,34 -1207,55 -33,-772 -49,-1146 327,-11 481,-22 -6,-156 z" />
<path id="Valley" d="M 10042,-1624 l 57,0 63,2894 16,948 -901,26 -1034,6 -896,11 -947,-5 -72,0 -16,-953 -57,-2883 916,-6 962,-21 z" />
<path id="Washington" d="M 29322,-1532 l 2702,-92 9,45 29,43 39,43 44,52 49,43 36,57 20,49 11,55 -4,66 -17,51 -15,50 -19,44 -28,33 -39,60 -24,56 -22,50 5,40 16,40 25,41 48,46 40,24 88,48 80,39 32,38 20,50 8,24 -14,27 -14,16 -31,19 -23,20 -27,43 -26,28 -16,40 -7,41 -7,51 0,40 20,55 21,44 52,77 34,38 43,32 40,15 46,0 24,8 5,2 48,15 36,5 35,-5 71,-11 27,-25 25,-34 22,-47 3,-31 2,-51 14,-54 15,-44 48,-34 66,-9 42,12 54,44 35,45 27,65 28,63 18,53 16,61 -10,50 -15,40 -31,31 -40,32 -37,24 -36,32 -25,18 -18,26 -18,35 -5,30 16,51 15,30 30,23 37,22 56,20 57,5 49,9 42,12 42,13 43,27 34,18 46,27 52,1 39,-18 30,-17 43,-4 56,0 36,5 30,12 37,23 24,38 34,43 24,50 -7,45 -13,37 -26,24 -31,30 -23,37 -17,44 -7,54 13,40 15,64 10,64 -5,30 -20,41 -19,35 -12,41 -10,35 -3286,140 -17,-469 -307,11 -6,-161 -168,11 -6,-151 -154,0 -5,-55 -5,-147 -108,6 -5,-106 -133,-4 -12,-348 -87,0 5,-121 z" />
<path id="Wayne" d="M 21404,-8695 l 2879,-85 38,969 680,-37 281,-1 635,-18 49,1146 33,772 -1611,71 -1934,67 -967,18 z" />
<path id="Webster" d="M 10528,13790 l 26,-6 974,-16 928,-11 35,-10 923,-1 41,0 328,-11 564,-6 31,5 64,3852 -1956,37 -1666,29 -249,5 -32,-2891 z" />
<path id="Wheeler" d="M 9978,-5482 l 972,-17 2839,-65 36,0 43,1927 28,1922 -3797,91 -57,0 -37,-1932 z" />
<path id="York" d="M 17983,5923 l 531,-15 1398,-44 574,-27 389,-1 968,-27 43,982 71,2887 -2895,88 -958,22 z" />
</g>
</svg>
