<svg xmlns="http://www.w3.org/2000/svg" version="1.2" viewBox="-34366 -16378 10000 4639.0635" preserveAspectRatio="xMinYMin meet"><path d="m-34189.438-16343.313v2.188l-5 100.938-22.5 476.875-37.5 780.313-5.938 127.188-.625 6.563-20.625 442.5v4.375l-9.375 196.25-11.875 253.75-26.563 551.875-1.875 32.5 538.438 21.875 213.75 8.75 433.75 16.25 16.25.625 373.438 11.875 37.5 1.25 642.188 19.688-8.75 375.625-1.875 75.625-8.125 384.063-3.125 135-11.25 513.75 214.063 5 94.375 1.875 177.813 3.125 89.375 1.563 153.75 2.5 47.5.937 53.75.937 26.563.312 341.25 5.625 275.625 3.438h22.813l62.188.937 561.563 3.75h227.50099999999998l420.938-.625h1.875l392.5-2.188 95.313-.625h22.813l128.75-.937 77.188-.625 309.688-5.625 33.438-.625 223.125-3.75 262.188-5 281.25-4.688 40.625-.625 73.125-2.188 124.063-3.438 4.375-.312 510.625-13.75 2.813-.312 39.688-.937 380.625-10.938 94.688-2.813 127.5-4.375 388.125-15.625h4.063l258.125-9.063 260.625-11.25 11.563-.625 243.75-11.563 275.313-13.75 108.438-4.375 12.813-.937 114.063-5.625 36.25-.937-2.5-10.313-5.938-7.813-25-8.75-15.313-14.063-16.875-2.188-9.375 3.438-10.938 4.688-9.375.312-6.875-1.25-8.75-3.125-9.688-7.813-5.313-7.5-3.75-9.375-2.188-7.5-1.875-9.688 1.563-7.188 1.875-4.688 4.375-4.688 3.75-5 1.875-5 .625-5.625-1.563-4.688-1.875-6.875-.312-5.625 1.25-5.625 2.813-5 2.813-2.813 5.938-5.625 4.063-4.063 1.563-5 .625-5.313-.937-6.25-1.563-5.313-2.813-4.688-3.438-3.438-6.25-2.813-5.625-.937-5.313.625-8.438-.937-8.438-5.938-5.938-9.375-2.813-23.439-10.313-9.063-20.625-7.5-22.5-22.813-4.063-10.313-.937-12.813 11.875-25.313.625-15.313-2.188-9.688-7.188-11.875-15.313-8.438-37.188 1.563-24.688-11.875-10.625-4.688-3.125-3.125-1.25-4.375v-5.938l5-22.813-3.125-7.5-10.625-8.75-22.813-2.188-19.688-14.375-13.438-5.625-8.438 1.25-30.938 13.438-7.188-1.25-6.875-5.625-.937-7.5 4.375-10.313 26.25-13.75 5-5.313 2.813-9.688-5.938-17.5-16.875-19.375-4.688-30.313-19.063-31.875-3.125-10.625 4.375-13.75 1.25-5v-6.563l-.937-5.625-2.813-7.188-2.813-6.563-5-6.563-8.438-9.063-8.125-5-17.5-12.188-3.438-7.188.312-11.563.625-12.813-.625-7.5-2.5-6.875-4.063-7.188 42.188-20 6.25-9.688 2.813-21.563-4.688-12.5-7.5-4.688-11.875-18.438-16.875 4.063-8.125 5.625-1.25 42.5-12.5 10.938-1.875-3.125-5-5-9.375-.937-5.313 2.5-11.875 2.5-13.125.312-12.813-2.813-7.5-4.688-3.125-7.5 5.625-17.813v-8.125l-14.063-28.438.625-7.5 8.75-11.25 13.125-10.625 4.688-17.188-3.125-7.813-20.938-17.5-4.375-27.188-5.625-10.625-23.125-21.875-30.625-5.313-24.063-13.75-12.188-36.875-8.438-7.813-27.188-12.813-4.688-10.625-3.438-16.875 6.875-22.5 11.875-13.75 30.313-18.125 5.938-8.438 4.063-13.125v-2.813l-1.25-5.313-3.125-5.938-4.063-7.188-1.563-5-3.125-6.563-1.25-7.5v-5.625l.937-5.938 3.75-8.125 1.563-6.563-2.188-11.875v-6.25l-4.063-7.5-4.375-6.875-1.875-4.375-1.563-5.625 1.25-6.25 1.563-4.688 2.188-5.313 3.125-2.813 5.313-1.875 6.25-2.5 6.875-1.25 5-3.125 3.438-3.438 4.063-5.625 1.875-8.75v-13.438l-1.563-4.375-5.313-5.938-6.25-5.938-6.25-5.938-5.938-7.5-6.25-12.813-2.188-8.438-1.25-9.688.625-5.938.625-8.125 1.875-6.875 2.188-6.25 2.813-5.313 1.25-6.563v-6.25l-.312-6.563-2.5-6.563-1.875-5-4.375-5.313-3.438-2.813-6.563-2.5-7.813-2.813-5.625-2.5-4.688-2.813-4.063-3.125-.625-1.25-3.125-2.813-3.438-5.938-1.25-6.563 5.625-15.938 5-10v-11.563l-3.438-8.438-14.688-13.438-.312-.312-6.875-6.875-3.438-9.688.312-4.063 1.875-4.375 5-5 3.438-4.063 4.063-4.688 4.063-6.875 2.5-4.688 1.563-6.875-.937-5.313-1.875-7.813-1.875-5.938-1.25-7.813-1.25-9.375.937-6.875-.625-6.25-.937-4.375-2.5-6.25-5.313-6.875-3.125-5.938-3.125-5.938-4.063-7.813-1.25-7.188v-7.188l1.25-5.313.625-3.125 1.563-5 3.75-3.75 2.5-2.188 2.188.937h.625l5.938.625 5.313 2.188 4.375 1.875 5.313-.625 5-2.188 3.438-3.438 2.188-4.688-1.563-5.938-2.188-3.75-3.438-5-6.875-4.688-8.75-2.813-6.875.937h-13.126000000000001l-4.688.625-7.813.312-10.313 1.563-8.125.312h-7.5l-5-2.5-5-2.188h-.937l-5.313-6.25-2.813-5.313v-14.062999999999999l2.5-5.313 5-8.438 5.938-10 3.75-7.5.937-5.313-.625-8.75-.937-5.938-3.439-6.561-3.125-6.563-3.438-4.688-2.188-4.688-2.188-4.375-1.25-5-4.688-18.125-4.375-16.25-.625-12.813 2.813-7.5 8.75-4.063h10.313l4.688 1.875 2.813 4.375-.312 6.25-4.375 9.063-1.875 7.5 1.25 12.188 2.188 1.25 2.188-.312 21.25-11.563 8.438-6.875 3.75-6.25 1.875-10.313-.937-13.438-1.875-5.625-3.438-5.938-6.25-5.938-4.375-2.813-1.25-.625-5.938-1.875-6.875-.937-6.563 1.25-6.875.625-7.188-.937-10.938-2.5-9.375-5-9.375-7.188-2.5-2.813-6.251-4.064-2.813-4.063-2.188-5.938-.625-5.313 1.25-4.063 2.188-2.188 4.375-2.5 5.313-4.375 4.688-3.125 5-3.438 4.688-5.625 1.563-3.125 1.875-5.625-.312-6.563-3.438-5.938-3.125-5.938-4.375-7.188-2.813-5.313v-4.688l1.25-4.688 1.875-5.625 2.5-4.688 2.5-5.313.625-4.063-1.25-8.438-1.875-8.75-1.875-5.313.937-7.188 2.188-5.938 3.125-5 4.375-4.063 3.438-3.125 1.563-5 .937-5.938-3.125-6.875-4.688-5.625-3.125-5-5-3.125-4.063-1.563-4.688-.625h-7.5l-5.938.312-3.75 2.5-5.313 2.188h-6.875l-6.25-3.75-4.688-2.188-5.625-3.75-5.625-1.875-5.625-1.563-6.563-1.25-7.813-.625-7.5-2.5-4.688-3.125-4.063-3.125-2.188-4.063-2.188-6.563.937-4.063 2.188-4.688 2.5-3.438 3.438-2.5 4.688-4.375 5-3.125 5.313-4.375 4.063-4.063 2.188-5.313 1.25-6.875-2.188-8.125-2.188-7.188-3.75-8.438-3.75-8.438-4.688-6.25-7.188-5.938-5.625-1.563-8.75 1.25-6.563 4.688-1.875 5.938-1.875 7.188-.312 6.875-.625 4.063-2.813 6.25-3.438 4.688-3.438 3.125-9.688 1.563-4.688.625-4.688-.625-6.563-1.875-.625-.312-3.125-1.25h-6.25l-5.313-1.875-5.625-4.375-4.688-5-6.875-10.313-2.813-5.938-2.813-7.5v-5.313l.937-6.875.937-5.313 2.188-5.313 3.438-3.75 3.75-5.938 3.125-2.5 4.063-2.5 1.875-2.188 1.875-3.75-1.25-3.125-2.5-6.875-4.375-5-10.625-5.313-11.875-6.25-5.313-3.125-6.563-6.25-3.125-5.625-2.188-5.313-.625-5.313 2.814-6.563 3.125-7.5 5.313-8.125 3.75-4.375 2.5-5.938 2.188-6.875 2.188-6.563.625-9.063-1.563-7.188-2.813-6.563-4.688-7.813-6.563-5.625-5.938-7.188-5.313-5.625-3.75-5.625-1.25-6.25-.625-2.5.625-10.313.937-4.063.312-3.125 4.063-4.063 4.688-3.125 3.75-1.25 5.313.937h5.938l6.563-1.25 6.25.312 5.938-1.25 4.375-1.563 2.5-2.813.937-4.063-.312-6.25-2.187-6.562-4.063-4.375-4.063-3.438-5.313-2.5-8.438-2.813-3.75-1.875-5.313-3.75-3.125-4.688-.937-6.563.312-6.563 1.563-6.563 3.75-7.188 4.688-8.125 5.625-10 7.188-13.125 9.688-16.25 3.438-8.125 1.25-8.125v-8.125l-1.875-5.938-5.625-6.25-3.438-2.5-4.063-1.563-5-.625-5-1.563-3.75-.937-3.125-1.875-5.313-4.375-5-3.75-3.125-3.75-2.188-4.063-2.813-4.375-.937-6.25.937-8.125.938-6.875v-5.313l-2.188-6.563-2.188-5-2.5-2.813-5.938-3.75-5.938-3.438-6.875-3.75-6.25-4.063-1.563-1.563-3.75-3.75-4.063-7.813-2.5-6.563-.625-5.938-1.25-6.25-2.188-5-5.938-7.813-4.063-5-3.75-5.313-.312-4.688-.312-3.75 1.875-2.813 2.5-1.875 4.375-1.563 4.375-1.875 3.75-3.438 3.75-3.438 2.5-4.688 1.25-6.25v-5.938l-1.875-5-2.188-5.625-1.875-7.188-1.875-5.313.312-4.688.625-5.313 1.25-5.625 3.125-5 2.5-5 1.563-7.813-.937-5-5.313-6.563-5.625-3.75-5-.312-5.938-1.563h-5.625l-5.313.937-5 1.25h-4.688l-3.75-.312-3.75-3.125-3.438-2.5-2.5-4.688-2.5-6.25v-9.687999999999999l-.625-5.625-.312-6.563-.625-1.563-2.5-1.25-5-3.125-15-.625-10.314 4.375-10 18.75-13.125-1.563-5.625-7.188-.312-4.063 3.125-13.75 10.625-7.188 5.938-9.063.937-2.813.312-4.688-2.5-3.75-.937-4.688-8.438-5.313-2.188-.625-5.625-3.75-21.563 5-13.75-6.25-2.5-4.688-.937-1.875-1.563-4.063-4.688-12.188-1.875-15 1.25-17.813 7.813-17.5 2.813-16.563-3.438-17.5-7.813-7.188-1.563-3.125-10.938-5.313-21.563-4.688-8.125-9.375-3.438-7.188-3.125-8.75-9.063-8.438-16.563-8.75-8.125-10.625-1.25-5-.625-.937-1.875-4.688-1.563-5.313v-3.438l-.312-5.938.625-3.438-.312-4.063-.312-2.813.312-3.438-.625-4.063-3.438-9.063-3.125-5.938-1.875-4.688-.937-3.75.312-4.375.312-.937 23.125-4.375 15-22.5-7.5-10.938.312-11.563-3.75-16.25-9.688-13.125-16.25-9.063-4.688-3.75-11.875-18.438-4.375-24.688-1.563-11.563-2.5-4.375-.312-1.875-10.625-10.313-29.063-16.251-11.875-21.25 1.875-16.25 8.75-16.875-10.313-26.875.312-24.375 16.875-21.563 2.5-2.5 5.625-6.875 4.375-6.25 3.438-8.125.937-9.375.625-12.188-.312-17.5-3.125-11.563-4.063-9.375-5.938-7.813-9.063-5.313-9.375-2.188-12.5-2.5-15 1.875-16.875 2.813h-1.875l-7.5 2.813-7.813 2.813-5.313 2.813-.937.625-3.75 1.25-6.563 2.5-2.5.938h-10.625l-1.25-.313-4.375-2.188-4.063-1.875-5-5.313-3.125-3.125-2.5-2.813-4.063-6.25-5-7.188-2.813-4.063-1.25-2.5-5.938-9.063-5.313-4.688-5-4.063-5.625-1.875-2.5-.625-10.313-1.563-1.25.313-4.375.938-3.125 1.25-4.375 1.25-3.125.938-1.563.938-6.25 3.75-5.938 3.75-.625.625-7.813 6.563-2.188 1.563-3.75 2.5-5.625 2.188-3.125 1.25h-2.188l-4.375.313-5-2.813-6.563-3.438-.937-.625-6.563-6.563-.312-4.375v-3.4379999999999997l.937-2.5 1.563-4.063.937-6.25.312-2.5-.625-3.438-.625-5.938-1.25-5.313-.312-1.563-2.5-4.375-2.5-4.375-.625-.938-2.5-4.375-2.5-2.188-4.375-4.063-4.375-3.438-2.188-2.188-1.875-1.25-9.375-9.375-7.813-6.25-5.313-4.375-3.75-2.813-5.938-4.375-3.125-2.188-5.938-4.063-8.75-5.313-1.563-.938-4.375-4.375-11.25-8.75-1.563-1.563-8.438-10.625-4.375-5.938.937-5 2.188-12.813.312-1.563 2.188-3.75 3.438-5.313 3.125-5 .937-.938 3.438-4.063 2.5-2.813 2.188-4.063 8.125-15.313.625-.938-8.125-12.188-1.563-2.5-1.25-1.25-6.25-1.875-5-1.563-4.688-1.875-4.063-1.25h-9.062999999999999l-4.063-.313h-1.875l-2.188-.313h-8.438l-1.875.313-6.875 1.25-1.875.625-3.125.313-19.688 4.063-.937.313-5.938-.313-5.938-.313h-2.5l-6.563-1.563-6.875-1.25-5.313-3.75-5.313-3.75-.937-.938-4.375-3.125-.625-5.313-.937-6.875v-1.875l-.312-2.813-.312-6.25v-.938l-.312-6.563-.312-1.25-4.688-7.188-4.688-5.625-5.625-2.813-5.313-.938-6.25-.938-1.25-.313-9.063-4.688-12.813-10-3.75-1.563-5.938-4.375-7.813-2.5-8.125-2.5-4.688-1.563-2.813-.625-6.875-1.563-10.313-2.5-3.75-.938h-3.125l-15.625-.625-4.063-.313-.625.313-5.625 2.813-4.375 1.875-3.438 2.5-2.188 1.563-6.875 8.438-3.75 3.125-5.313 2.188-10.313-.625-2.5-1.25-6.563-5-.312-1.25.625-4.688 1.25-7.813.625-.938 1.563-4.688.312-2.813.625-4.688-1.25-2.813-.937-4.688-2.813-4.375-4.063-5.938-.937-.938-4.688-4.375-10-5.313-2.5-.313-5.625-.625-4.375-.625-5 1.563-4.375-.625-1.875.625-3.438 1.25h-5.313l-3.75-.625-6.563-1.25-6.25.313-1.875-.313-4.375-.625-10.938.625-6.875 1.25-6.25.938-6.563.938-4.688.313h-2.188l-10.625-.938-14.375-1.875-2.5-.625-8.75-2.188-3.75-.625-3.438-.625-5.938-1.875-5.625-1.875-5.938-1.25-4.378-.938-4.063-1.25-3.438-1.875-.938-3.438-1.25-4.688-1.563-12.5-1.875-3.438-1.875-4.375-3.75-3.125-.937-.938-5.625-2.5-.937-.313-7.813-2.5h-.937l-14.688-4.063-31.25-2.813-10.625-5.313-9.064-27.813-.625-22.813-2.5-4.375-33.125-12.813-20.313 5.625-24.375-4.375-13.125-11.875h-5.313l-4.688-.938-6.563-4.688-1.25-.625-11.25 1.563-9.063-2.188-11.875-4.063-9.688-1.25-13.438 2.188-2.188 1.25-1.25 3.75-2.813 4.688-5.938 2.813h-.625l-15 .625-7.5-1.563h-6.563l-6.563 2.5-7.188 4.688-7.5 7.5-4.375 6.563-11.563 8.125-6.563 1.563-7.188-.938-4.375-1.875-4.063-5.625-3.438-3.438-4.063-.938-8.125.625-1.563-1.875-.625-5.625v-8.75l-1.563-3.75-2.5-.625-3.75.313-7.188 2.188-30.938 10-3.75 2.5-7.188 8.125-8.75 7.813-4.063 2.5-22.188 4.375-22.5 3.438-7.813.625-5.625-.313-4.375-1.563-2.813-2.5-2.188-4.375-.937-5.625.312-7.5-.625-5.625-1.25-3.75-2.5-1.563-6.875-.938-10.625 1.563-6.875 3.75-5 3.75-10 16.563-3.125 4.688-7.5 11.875-4.063 5-7.188 4.375-5 1.563h-5.625l-4.375-.938-4.688-2.5-7.5-7.188-4.063-6.25-2.5-6.563-1.25-5.313-3.75-4.063-10.313-7.5-5.625-2.813-8.438-2.188h-6.563l-4.688 1.25-7.5 10.625-9.375 11.25-6.563 7.188-6.25 5.625-7.813 2.813-7.813 1.563-9.063-.625-6.563-1.875-4.375-2.813-21.875-25.313-9.063-9.063-8.75-6.563-3.125-.313-10.313.938-19.063 4.688-15.625 8.438-5 4.375-.625 5.938 1.563 4.063v5.313l-3.125 4.688-.625 9.063-4.063 14.063-5.938 10-3.75 9.375-21.563 31.875-5.625 6.563-10.938 8.438-6.875 6.875-8.438 5.625-13.125 5.938-15.938 5.938-20.938 5-2.5 1.25-23.438 5-24.375-2.188-23.75-9.375-12.5-20.625-29.688-20.313-20.625-21.25-16.875-9.375-22.188-29.688 2.5 4.063-2.813-.313-4.375.625-3.438.625-6.563.625-2.813.313h-5.313l-.937-.313-4.688-1.25-1.25-.313-6.25-1.875-9.063-3.125-7.5-3.438-1.25-.313-6.875-3.125-4.688-2.5-3.125-1.875-12.188-8.75-2.5-1.563-9.063-5.625-9.688-5.938-3.125-1.563-5.625-2.188-3.438-1.563-2.5-.313-7.5-1.25-3.125-.313-18.125-4.688-2.188-.938-33.125-12.188v-.938l-15.938-5-10.938-4.063-10.625-4.063-5.625-2.188-7.5-3.438-10.313-8.125-5.625-8.438-1.563-1.875-3.125-4.063-4.063-4.063-5-3.75-6.875-4.375-3.75-1.875-4.688-1.875-4.375-2.188-4.688-2.813-5.625-.938-5.313-1.25-6.875-1.25h-5l-3.125-.313h-1.563l-7.5-1.563h-1.25l-5.625-2.813-1.25-.938-5.313-3.125-3.438-2.188-1.25-1.25-3.75-3.438-.625-.938-4.688-4.688-2.813-3.125-4.688-11.563-1.875-3.125-2.188-4.375-5-9.375-3.438-6.25-2.813-5.625-6.25-10.938-5.625-9.375-1.25-2.188-5-9.063-2.5-5h-4.688l-26.25.625-16.25.313-160 1.875-194.375 1.563-420.625 6.563-305.625.313-125.938 1.875h-5.625l-379.063.625-216.875-.938v1.25l-213.438.938-304.063-.625-85.938-.313-520.938-7.188-491.25-8.438-82.5-2.188-231.875-7.5-38.75-.938-89.688-3.125-326.25-9.063-55.313-1.563-82.813-3.438v-5.313l-308.125-6.25h-2.5l-128.125-4.063-95.313-3.125h-1.875l-58.125-2.188-59.375-2.188-23.438-.938-45.625-2.188-21.875-.938-41.25-.938h-.937l-61.876-3.438-20.625-.938-21.25-1.25-63.125-3.125-87.188-3.438h-4.063l-35.625-1.563-9.063-.313-28.438-1.25-20.625-.625-69.063-3.125h-3.438l-7.813-.625-13.438-.313-70.625-3.438-20.313-.938-10.313-.625-8.75-.313-41.875-2.188-20.625-1.25-25.313-1.25-123.125-6.25-94.375-5-38.125-1.875zm8332.813 1405l5.313 238.438-791.25 16.563 7.188 312.188 736.25-15.625 5.313 237.5-736.25 15.313 8.75 383.438 819.375-17.188 5.313 237.188-220.313 4.688c40.981 17.703 77.277 39.839 108.75 66.25 100.174 83.463 153.742 196.216 161.25 338.438l-312.5 19.375c-14.827-79.368-44.678-135.969-89.688-169.688-44.319-34.435-110.374-50.966-198.438-49.375-90.884 1.645-161.746 21.73-212.5 60-32.679 24.553-48.852 57.031-48.125 97.188.663 36.636 16.968 67.619 48.438 93.125 40.052 32.399 136.236 65.26 289.063 98.438 152.824 33.178 266.107 68.502 339.375 105.938 73.956 36.719 131.988 88.186 174.063 154.375 42.763 65.474 64.79 147.073 66.563 245 1.606 88.769-21.462 172.236-69.375 250.625-47.916 78.389-116.448 137.513-205.938 177.188-89.504 38.972-201.688 59.752-336.25 62.188-195.857 3.544-347.146-38.908-453.75-127.188-106.617-88.984-171.745-219.87-195.313-392.813l304.063-35.313c20.165 101.824 58.475 176.226 115 223.125 57.227 46.888 133.326 69.534 228.438 67.813 100.745-1.823 175.977-24.311 225.938-67.5 50.651-43.905 75.407-94.496 74.375-151.563-.662-36.634-12.077-67.219-34.375-92.188-21.608-25.684-59.239-47.572-113.125-65.625-36.866-12.018-120.953-33.075-251.875-63.125-168.428-38.533-286.896-87.51-355.625-146.875-96.653-83.525-145.907-186.475-148.125-309.063-1.428-78.905 19.352-153.046 62.5-222.188 40.798-65.01 98.563-115.869 173.438-152.813l-241.25 5-32.188-1408.125 1087.5-23.125zm-1401.563 29.688l31.875 1391.25h1.563l17.813 980.625c2.321 128.222-7.144 227.112-28.438 296.563-28.663 90.726-82.322 164.232-160.938 220.625-78.629 55.689-183.102 84.83-313.438 87.188-152.881 2.766-271.341-37.806-355.313-121.563-83.984-84.459-127.863-209.45-131.563-375l294.063-39.063c5.128 88.706 19.292 150.96 42.5 187.188 34.824 55.045 86.895 82.188 155.938 80.938 69.747-1.262 118.704-21.899 146.875-61.875 28.159-40.68 41.019-123.659 38.75-249.063l-18.125-1000.938h1.563l-600.313-888.438 20.938 918.438-275 5.625-32.188-1408.125 288.125-5.938 621.563 927.813-21.563-940.625 275.313-5.625zm1889.688 1890.313l6.563 192.188-191.875 6.563-6.875-191.875 192.188-6.875zm18.438 533.75l5 137.188c1.941 55.566-1.55 99.347-10 131.563-8.435 32.672-25.581 62.306-51.563 88.75-25.527 26.427-58.582 47.744-99.063 63.75l-40.313-78.125c38.268-14.105 65.337-32.593 80.938-55.938 15.601-23.346 23.222-54.041 22.813-91.875l-93.125 3.125-6.563-191.875 191.875-6.563z" fill="#f0db4f"/></svg>