<?xml version="1.0" encoding="UTF-8" standalone="no"?>

<svg
   xmlns="http://www.w3.org/2000/svg"
   version="1.2"
   viewBox="-34366 -16378 10000 4639.0635"
   preserveAspectRatio="xMinYMin meet">
  <path
     d="m 17.65625,3.46875 0,0.21875 -0.5,10.09375 -2.25,47.6875 -3.75,78.03125 -0.59375,12.71875 -0.0625,0.65625 -2.0625,44.25 0,0.4375 -0.9375,19.625 -1.1875,25.375 -2.65625,55.1875 -0.1875,3.25 53.84375,2.1875 21.375,0.875 43.375,1.625 1.625,0.0625 37.34375,1.1875 3.75,0.125 64.21875,1.96875 -0.875,37.5625 -0.1875,7.5625 -0.8125,38.40625 -0.3125,13.5 -1.125,51.375 21.40625,0.5 9.4375,0.1875 17.78125,0.3125 8.9375,0.15625 15.375,0.25 4.75,0.0937 5.375,0.0937 2.65625,0.0312 34.125,0.5625 27.5625,0.34375 0.3125,0 1.96875,0 6.21875,0.0937 56.15625,0.375 1.84375,0 20.90625,0 42.09375,-0.0625 0.1875,0 39.25,-0.21875 9.53125,-0.0625 2.28125,0 12.875,-0.0937 7.71875,-0.0625 30.96875,-0.5625 3.34375,-0.0625 22.3125,-0.375 26.21875,-0.5 28.125,-0.46875 4.0625,-0.0625 7.3125,-0.21875 12.40625,-0.34375 0.4375,-0.0312 51.0625,-1.375 0.28125,-0.0312 3.96875,-0.0937 38.0625,-1.09375 9.46875,-0.28125 12.75,-0.4375 38.8125,-1.5625 0.40625,0 25.8125,-0.90625 26.0625,-1.125 1.15625,-0.0625 24.375,-1.15625 27.53125,-1.375 10.84375,-0.4375 1.28125,-0.0937 11.40625,-0.5625 3.625,-0.0937 -0.25,-1.03125 -0.59375,-0.78125 -2.5,-0.875 -1.53125,-1.40625 -1.6875,-0.21875 -0.9375,0.34375 -1.09375,0.46875 -0.9375,0.0312 -0.6875,-0.125 -0.875,-0.3125 -0.96875,-0.78125 -0.53125,-0.75 -0.375,-0.9375 -0.21875,-0.75 -0.1875,-0.96875 0.15625,-0.71875 0.1875,-0.46875 0.4375,-0.46875 0.375,-0.5 0.1875,-0.5 0.0625,-0.5625 -0.15625,-0.46875 -0.1875,-0.6875 -0.0312,-0.5625 0.125,-0.5625 0.28125,-0.5 0.28125,-0.28125 0.59375,-0.5625 0.40625,-0.40625 0.15625,-0.5 0.0625,-0.53125 -0.0937,-0.625 -0.15625,-0.53125 -0.28125,-0.46875 -0.34375,-0.34375 -0.625,-0.28125 -0.5625,-0.0937 -0.53125,0.0625 -0.84375,-0.0937 -0.84375,-0.59375 -0.59375,-0.9375 L 980.9375,424 l -1.03125,-0.90625 -2.0625,-0.75 -2.25,-2.28125 -0.40625,-1.03125 -0.0937,-1.28125 1.1875,-2.53125 0.0625,-1.53125 -0.21875,-0.96875 -0.71875,-1.1875 -1.53125,-0.84375 -3.71875,0.15625 -2.46875,-1.1875 -1.0625,-0.46875 -0.3125,-0.3125 -0.125,-0.4375 0,-0.59375 0.5,-2.28125 -0.3125,-0.75 -1.0625,-0.875 -2.28125,-0.21875 -1.96875,-1.4375 -1.34375,-0.5625 -0.84375,0.125 -3.09375,1.34375 -0.71875,-0.125 -0.6875,-0.5625 -0.0937,-0.75 0.4375,-1.03125 2.625,-1.375 0.5,-0.53125 0.28125,-0.96875 -0.59375,-1.75 -1.6875,-1.9375 -0.46875,-3.03125 -1.90625,-3.1875 -0.3125,-1.0625 0.4375,-1.375 0.125,-0.5 0,-0.65625 -0.0937,-0.5625 -0.28125,-0.71875 -0.28125,-0.65625 -0.5,-0.65625 -0.84375,-0.90625 -0.8125,-0.5 -1.75,-1.21875 -0.34375,-0.71875 0.0312,-1.15625 0.0625,-1.28125 -0.0625,-0.75 -0.25,-0.6875 -0.40625,-0.71875 4.21875,-2 0.625,-0.96875 0.28125,-2.15625 -0.46875,-1.25 -0.75,-0.46875 -1.1875,-1.84375 -1.6875,0.40625 -0.8125,0.5625 -0.125,4.25 -1.25,1.09375 -0.1875,-0.3125 -0.5,-0.5 -0.9375,-0.0937 -0.53125,0.25 -1.1875,0.25 -1.3125,0.0312 -1.28125,-0.28125 -0.75,-0.46875 -0.3125,-0.75 0.5625,-1.78125 0,-0.8125 -1.40625,-2.84375 0.0625,-0.75 0.875,-1.125 1.3125,-1.0625 0.46875,-1.71875 -0.3125,-0.78125 -2.09375,-1.75 -0.4375,-2.71875 -0.5625,-1.0625 -2.3125,-2.1875 -3.0625,-0.53125 -2.40625,-1.375 -1.21875,-3.6875 -0.84375,-0.78125 -2.71875,-1.28125 -0.46875,-1.0625 -0.34375,-1.6875 0.6875,-2.25 1.1875,-1.375 3.03125,-1.8125 0.59375,-0.84375 0.40625,-1.3125 0,-0.28125 -0.125,-0.53125 -0.3125,-0.59375 -0.40625,-0.71875 -0.15625,-0.5 -0.3125,-0.65625 -0.125,-0.75 0,-0.5625 0.0937,-0.59375 0.375,-0.8125 0.15625,-0.65625 L 930,325.125 l 0,-0.625 -0.40625,-0.75 -0.4375,-0.6875 -0.1875,-0.4375 -0.15625,-0.5625 0.125,-0.625 0.15625,-0.46875 0.21875,-0.53125 0.3125,-0.28125 0.53125,-0.1875 0.625,-0.25 0.6875,-0.125 0.5,-0.3125 0.34375,-0.34375 0.40625,-0.5625 0.1875,-0.875 0,-1.34375 -0.15625,-0.4375 -0.53125,-0.59375 -0.625,-0.59375 -0.625,-0.59375 -0.59375,-0.75 -0.625,-1.28125 -0.21875,-0.84375 -0.125,-0.96875 0.0625,-0.59375 0.0625,-0.8125 0.1875,-0.6875 0.21875,-0.625 0.28125,-0.53125 0.125,-0.65625 0,-0.625 -0.0312,-0.65625 -0.25,-0.65625 -0.1875,-0.5 -0.4375,-0.53125 -0.34375,-0.28125 -0.65625,-0.25 -0.78125,-0.28125 -0.5625,-0.25 -0.46875,-0.28125 -0.40625,-0.3125 -0.0625,-0.125 -0.3125,-0.28125 -0.34375,-0.59375 -0.125,-0.65625 0.5625,-1.59375 0.5,-1 0,-1.15625 -0.34375,-0.84375 -1.46875,-1.34375 -0.0312,-0.0312 -0.6875,-0.6875 -0.34375,-0.96875 0.0312,-0.40625 0.1875,-0.4375 0.5,-0.5 0.34375,-0.40625 0.40625,-0.46875 0.40625,-0.6875 0.25,-0.46875 0.15625,-0.6875 -0.0937,-0.53125 -0.1875,-0.78125 -0.1875,-0.59375 -0.125,-0.78125 -0.125,-0.9375 0.0937,-0.6875 -0.0625,-0.625 -0.0937,-0.4375 -0.25,-0.625 -0.53125,-0.6875 -0.3125,-0.59375 -0.3125,-0.59375 -0.40625,-0.78125 -0.125,-0.71875 0,-0.71875 0.125,-0.53125 0.0625,-0.3125 0.15625,-0.5 0.375,-0.375 0.25,-0.21875 0.21875,0.0937 0.0625,0 0.59375,0.0625 0.53125,0.21875 0.4375,0.1875 0.53125,-0.0625 0.5,-0.21875 0.34375,-0.34375 0.21875,-0.46875 -0.15625,-0.59375 -0.21875,-0.375 -0.34375,-0.5 -0.6875,-0.46875 -0.875,-0.28125 -0.6875,0.0937 -1.09375,0 -0.21875,0 -0.46875,0.0625 -0.78125,0.0312 -1.03125,0.15625 -0.8125,0.0312 -0.75,0 -0.5,-0.25 -0.5,-0.21875 -0.0937,0 -0.53125,-0.625 -0.28125,-0.53125 0,-0.8125 0,-0.59375 0.25,-0.53125 0.5,-0.84375 0.59375,-1 0.375,-0.75 0.0937,-0.53125 -0.0625,-0.875 -0.0937,-0.59375 L 918.8125,265 918.5,264.34375 l -0.34375,-0.46875 -0.21875,-0.46875 -0.21875,-0.4375 -0.125,-0.5 -0.46875,-1.8125 -0.4375,-1.625 -0.0625,-1.28125 0.28125,-0.75 0.875,-0.40625 1.03125,0 0.46875,0.1875 0.28125,0.4375 -0.0312,0.625 -0.4375,0.90625 -0.1875,0.75 0.125,1.21875 0.21875,0.125 0.21875,-0.0312 2.125,-1.15625 0.84375,-0.6875 0.375,-0.625 0.1875,-1.03125 -0.0937,-1.34375 -0.1875,-0.5625 -0.34375,-0.59375 -0.625,-0.59375 -0.4375,-0.28125 -0.125,-0.0625 -0.59375,-0.1875 -0.6875,-0.0937 -0.65625,0.125 -0.6875,0.0625 -0.71875,-0.0937 -1.09375,-0.25 -0.9375,-0.5 -0.9375,-0.71875 -0.25,-0.28125 L 914,251.53125 913.71875,251.125 913.5,250.53125 913.4375,250 l 0.125,-0.40625 0.21875,-0.21875 0.4375,-0.25 0.53125,-0.4375 0.46875,-0.3125 0.5,-0.34375 0.46875,-0.5625 0.15625,-0.3125 0.1875,-0.5625 -0.0312,-0.65625 -0.34375,-0.59375 -0.3125,-0.59375 -0.4375,-0.71875 -0.28125,-0.53125 0,-0.46875 0.125,-0.46875 0.1875,-0.5625 0.25,-0.46875 0.25,-0.53125 0.0625,-0.40625 -0.125,-0.84375 -0.1875,-0.875 -0.1875,-0.53125 0.0937,-0.71875 0.21875,-0.59375 0.3125,-0.5 0.4375,-0.40625 0.34375,-0.3125 0.15625,-0.5 0.0937,-0.59375 -0.3125,-0.6875 -0.46875,-0.5625 -0.3125,-0.5 -0.5,-0.3125 -0.40625,-0.15625 -0.46875,-0.0625 -0.75,0 -0.59375,0.0312 -0.375,0.25 -0.53125,0.21875 -0.6875,0 -0.625,-0.375 -0.46875,-0.21875 -0.5625,-0.375 -0.5625,-0.1875 -0.5625,-0.15625 -0.65625,-0.125 -0.78125,-0.0625 -0.75,-0.25 -0.46875,-0.3125 -0.40625,-0.3125 -0.21875,-0.40625 -0.21875,-0.65625 0.0937,-0.40625 0.21875,-0.46875 0.25,-0.34375 0.34375,-0.25 0.46875,-0.4375 0.5,-0.3125 0.53125,-0.4375 0.40625,-0.40625 0.21875,-0.53125 0.125,-0.6875 -0.21875,-0.8125 -0.21875,-0.71875 -0.375,-0.84375 -0.375,-0.84375 -0.46875,-0.625 -0.71875,-0.59375 -0.5625,-0.15625 -0.875,0.125 -0.65625,0.46875 -0.1875,0.59375 -0.1875,0.71875 -0.0312,0.6875 -0.0625,0.40625 -0.28125,0.625 -0.34375,0.46875 -0.34375,0.3125 -0.96875,0.15625 -0.46875,0.0625 -0.46875,-0.0625 -0.65625,-0.1875 -0.0625,-0.0312 -0.3125,-0.125 -0.625,0 -0.53125,-0.1875 -0.5625,-0.4375 -0.46875,-0.5 -0.6875,-1.03125 -0.28125,-0.59375 -0.28125,-0.75 0,-0.53125 0.0937,-0.6875 0.0937,-0.53125 0.21875,-0.53125 0.34375,-0.375 0.375,-0.59375 0.3125,-0.25 0.40625,-0.25 0.1875,-0.21875 0.1875,-0.375 -0.125,-0.3125 -0.25,-0.6875 -0.4375,-0.5 -1.0625,-0.53125 -1.1875,-0.625 -0.53125,-0.3125 -0.65625,-0.625 -0.3125,-0.5625 -0.21875,-0.53125 -0.0625,-0.53125 L 894,211.125 l 0.3125,-0.75 0.53125,-0.8125 0.375,-0.4375 0.25,-0.59375 0.21875,-0.6875 0.21875,-0.65625 0.0625,-0.90625 -0.15625,-0.71875 -0.28125,-0.65625 -0.46875,-0.78125 -0.65625,-0.5625 -0.59375,-0.71875 -0.53125,-0.5625 -0.375,-0.5625 -0.125,-0.625 -0.0625,-0.25 0.0625,-1.03125 0.0937,-0.40625 0.0312,-0.3125 0.40625,-0.40625 0.46875,-0.3125 0.375,-0.125 0.53125,0.0937 0.59375,0 0.65625,-0.125 0.625,0.0312 0.59375,-0.125 0.4375,-0.15625 0.25,-0.28125 0.0937,-0.40625 -0.0312,-0.625 L 897.6875,196 l -0.40625,-0.4375 -0.40625,-0.34375 -0.53125,-0.25 -0.84375,-0.28125 -0.375,-0.1875 -0.53125,-0.375 -0.3125,-0.46875 -0.0937,-0.65625 0.0312,-0.65625 0.15625,-0.65625 0.375,-0.71875 0.46875,-0.8125 0.5625,-1 0.71875,-1.3125 0.96875,-1.625 0.34375,-0.8125 0.125,-0.8125 0,-0.8125 -0.1875,-0.59375 -0.5625,-0.625 -0.34375,-0.25 -0.40625,-0.15625 -0.5,-0.0625 -0.5,-0.15625 -0.375,-0.0937 -0.3125,-0.1875 -0.53125,-0.4375 -0.5,-0.375 -0.3125,-0.375 -0.21875,-0.40625 -0.28125,-0.4375 -0.0937,-0.625 0.0937,-0.8125 L 893,177.5 l 0,-0.53125 -0.21875,-0.65625 -0.21875,-0.5 -0.25,-0.28125 -0.59375,-0.375 -0.59375,-0.34375 -0.6875,-0.375 -0.625,-0.40625 -0.15625,-0.15625 -0.375,-0.375 -0.40625,-0.78125 -0.25,-0.65625 -0.0625,-0.59375 -0.125,-0.625 -0.21875,-0.5 -0.59375,-0.78125 -0.40625,-0.5 -0.375,-0.53125 -0.0312,-0.46875 -0.0312,-0.375 0.1875,-0.28125 0.25,-0.1875 0.4375,-0.15625 0.4375,-0.1875 0.375,-0.34375 0.375,-0.34375 0.25,-0.46875 0.125,-0.625 0,-0.59375 -0.1875,-0.5 -0.21875,-0.5625 -0.1875,-0.71875 -0.1875,-0.53125 0.0312,-0.46875 0.0625,-0.53125 0.125,-0.5625 0.3125,-0.5 0.25,-0.5 0.15625,-0.78125 -0.0937,-0.5 -0.53125,-0.65625 -0.5625,-0.375 -0.5,-0.0312 -0.59375,-0.15625 -0.5625,0 -0.53125,0.0937 -0.5,0.125 -0.46875,0 -0.375,-0.0312 -0.375,-0.3125 -0.34375,-0.25 -0.25,-0.46875 -0.25,-0.625 0,-0.46875 0,-0.5 -0.0625,-0.5625 -0.0312,-0.65625 -0.0625,-0.15625 -0.25,-0.125 -0.5,-0.3125 -1.5,-0.0625 L 880,153.25 l -1,1.875 -1.3125,-0.15625 -0.5625,-0.71875 -0.0312,-0.40625 0.3125,-1.375 1.0625,-0.71875 0.59375,-0.90625 0.0937,-0.28125 0.0312,-0.46875 -0.25,-0.375 -0.0937,-0.46875 -0.84375,-0.53125 -0.21875,-0.0625 -0.5625,-0.375 -2.15625,0.5 -1.375,-0.625 -0.25,-0.46875 -0.0937,-0.1875 -0.15625,-0.40625 -0.46875,-1.21875 -0.1875,-1.5 0.125,-1.78125 0.78125,-1.75 0.28125,-1.65625 -0.34375,-1.75 -0.78125,-0.71875 -0.15625,-0.3125 -1.09375,-0.53125 -2.15625,-0.46875 -0.8125,-0.9375 -0.34375,-0.71875 -0.3125,-0.875 -0.90625,-0.84375 -1.65625,-0.875 -0.8125,-1.0625 -0.125,-0.5 -0.0625,-0.0937 -0.1875,-0.46875 -0.15625,-0.53125 0,-0.34375 -0.0312,-0.59375 0.0625,-0.34375 -0.0312,-0.40625 -0.0312,-0.28125 0.0312,-0.34375 -0.0625,-0.40625 -0.34375,-0.90625 -0.3125,-0.59375 -0.1875,-0.46875 -0.0937,-0.375 0.0312,-0.4375 0.0312,-0.0937 2.3125,-0.4375 1.5,-2.25 -0.75,-1.09375 0.0312,-1.15625 -0.375,-1.625 -0.96875,-1.3125 -1.625,-0.90625 -0.46875,-0.375 -1.1875,-1.84375 -0.4375,-2.46875 -0.15625,-1.15625 -0.25,-0.4375 -0.0312,-0.1875 -1.0625,-1.03125 L 856.5,105 l -1.1875,-2.125 0.1875,-1.625 0.875,-1.6875 -1.03125,-2.6875 0.0312,-2.4375 1.6875,-2.15625 0.25,-0.25 0.5625,-0.6875 0.4375,-0.625 0.34375,-0.8125 0.0937,-0.9375 0.0625,-1.21875 -0.0312,-1.75 -0.3125,-1.15625 -0.40625,-0.9375 -0.59375,-0.78125 -0.90625,-0.53125 -0.9375,-0.21875 -1.25,-0.25 -1.5,0.1875 -1.6875,0.28125 -0.1875,0 -0.75,0.28125 -0.78125,0.28125 -0.53125,0.28125 -0.0937,0.0625 -0.375,0.125 -0.65625,0.25 -0.25,0.09375 -1.0625,0 -0.125,-0.03125 -0.4375,-0.21875 -0.40625,-0.1875 -0.5,-0.53125 -0.3125,-0.3125 -0.25,-0.28125 -0.40625,-0.625 -0.5,-0.71875 -0.28125,-0.40625 -0.125,-0.25 -0.59375,-0.90625 -0.53125,-0.46875 -0.5,-0.40625 -0.5625,-0.1875 -0.25,-0.0625 -1.03125,-0.15625 -0.125,0.03125 -0.4375,0.09375 -0.3125,0.125 -0.4375,0.125 -0.3125,0.09375 -0.15625,0.09375 -0.625,0.375 -0.59375,0.375 -0.0625,0.0625 -0.78125,0.65625 -0.21875,0.15625 -0.375,0.25 -0.5625,0.21875 -0.3125,0.125 -0.21875,0 -0.4375,0.03125 -0.5,-0.28125 -0.65625,-0.34375 -0.0937,-0.0625 -0.65625,-0.65625 -0.0312,-0.4375 0,-0.15625 0,-0.1875 0.0937,-0.25 0.15625,-0.40625 0.0937,-0.625 0.0312,-0.25 -0.0625,-0.34375 -0.0625,-0.59375 -0.125,-0.53125 -0.0312,-0.15625 -0.25,-0.4375 -0.25,-0.4375 -0.0625,-0.09375 -0.25,-0.4375 -0.25,-0.21875 -0.4375,-0.40625 -0.4375,-0.34375 -0.21875,-0.21875 -0.1875,-0.125 -0.9375,-0.9375 -0.78125,-0.625 -0.53125,-0.4375 -0.375,-0.28125 -0.59375,-0.4375 -0.3125,-0.21875 -0.59375,-0.40625 -0.875,-0.53125 -0.15625,-0.09375 -0.4375,-0.4375 -1.125,-0.875 -0.15625,-0.15625 -0.84375,-1.0625 -0.4375,-0.59375 0.0937,-0.5 0.21875,-1.28125 0.0312,-0.15625 0.21875,-0.375 0.34375,-0.53125 0.3125,-0.5 0.0937,-0.09375 0.34375,-0.40625 0.25,-0.28125 0.21875,-0.40625 0.8125,-1.53125 0.0625,-0.09375 -0.8125,-1.21875 -0.15625,-0.25 -0.125,-0.125 -0.625,-0.1875 -0.5,-0.15625 -0.46875,-0.1875 -0.40625,-0.125 -0.40625,0 -0.5,0 -0.40625,-0.03125 -0.1875,0 -0.21875,-0.03125 -0.84375,0 -0.1875,0.03125 -0.6875,0.125 -0.1875,0.0625 -0.3125,0.03125 -1.96875,0.40625 -0.0937,0.03125 -0.59375,-0.03125 -0.59375,-0.03125 -0.25,0 -0.65625,-0.15625 -0.6875,-0.125 -0.53125,-0.375 -0.53125,-0.375 -0.0937,-0.09375 -0.4375,-0.3125 -0.0625,-0.53125 -0.0937,-0.6875 0,-0.1875 -0.0312,-0.28125 -0.0312,-0.625 0,-0.09375 -0.0312,-0.65625 -0.0312,-0.125 -0.46875,-0.71875 -0.46875,-0.5625 -0.5625,-0.28125 -0.53125,-0.09375 -0.625,-0.09375 -0.125,-0.03125 -0.90625,-0.46875 -1.28125,-1 -0.375,-0.15625 -0.59375,-0.4375 -0.78125,-0.25 -0.8125,-0.25 -0.46875,-0.15625 -0.28125,-0.0625 -0.6875,-0.15625 -1.03125,-0.25 -0.375,-0.09375 -0.3125,0 -1.5625,-0.0625 -0.40625,-0.03125 -0.0625,0.03125 -0.5625,0.28125 -0.4375,0.1875 -0.34375,0.25 -0.21875,0.15625 -0.6875,0.84375 -0.375,0.3125 -0.53125,0.21875 -1.03125,-0.0625 -0.25,-0.125 -0.65625,-0.5 -0.0312,-0.125 0.0625,-0.46875 0.125,-0.78125 0.0625,-0.09375 0.15625,-0.46875 0.0312,-0.28125 0.0625,-0.46875 -0.125,-0.28125 -0.0937,-0.46875 -0.28125,-0.4375 -0.40625,-0.59375 -0.0937,-0.09375 -0.46875,-0.4375 -1,-0.53125 -0.25,-0.03125 -0.5625,-0.0625 -0.4375,-0.0625 -0.5,0.15625 -0.4375,-0.0625 -0.1875,0.0625 -0.34375,0.125 -0.53125,0 -0.375,-0.0625 -0.65625,-0.125 -0.625,0.03125 -0.1875,-0.03125 -0.4375,-0.0625 -1.09375,0.0625 -0.6875,0.125 -0.625,0.09375 -0.65625,0.09375 -0.46875,0.03125 -0.21875,0 -1.0625,-0.09375 -1.4375,-0.1875 -0.25,-0.0625 -0.875,-0.21875 -0.375,-0.0625 -0.34375,-0.0625 -0.59375,-0.1875 -0.5625,-0.1875 -0.59375,-0.125 L 775,43.375 774.59375,43.25 774.25,43.0625 774.15625,42.71875 774.03125,42.25 773.875,41 l -0.1875,-0.34375 -0.1875,-0.4375 -0.375,-0.3125 -0.0937,-0.09375 -0.5625,-0.25 -0.0937,-0.03125 -0.78125,-0.25 -0.0937,0 -1.46875,-0.40625 -3.125,-0.28125 -1.0625,-0.53125 L 764.9375,35.28125 764.875,33 l -0.25,-0.4375 -3.3125,-1.28125 -2.03125,0.5625 -2.4375,-0.4375 -1.3125,-1.1875 -0.0625,0 -0.46875,0 L 754.53125,30.125 753.875,29.65625 753.75,29.59375 752.625,29.75 751.71875,29.53125 750.53125,29.125 749.5625,29 l -1.34375,0.21875 -0.21875,0.125 -0.125,0.375 -0.28125,0.46875 -0.59375,0.28125 -0.0625,0 -1.5,0.0625 -0.75,-0.15625 -0.65625,0 -0.65625,0.25 -0.71875,0.46875 -0.75,0.75 -0.4375,0.65625 -1.15625,0.8125 -0.65625,0.15625 L 738.9375,33.375 738.5,33.1875 738.09375,32.625 737.75,32.28125 737.34375,32.1875 736.53125,32.25 736.375,32.0625 736.3125,31.5 l 0,-0.875 -0.15625,-0.375 -0.25,-0.0625 -0.375,0.03125 -0.71875,0.21875 -3.09375,1 -0.375,0.25 -0.71875,0.8125 -0.875,0.78125 -0.40625,0.25 -2.21875,0.4375 -2.25,0.34375 -0.78125,0.0625 -0.5625,-0.03125 -0.4375,-0.15625 -0.28125,-0.25 -0.21875,-0.4375 -0.0937,-0.5625 0.0312,-0.75 -0.0625,-0.5625 -0.125,-0.375 -0.25,-0.15625 -0.6875,-0.09375 -1.0625,0.15625 -0.6875,0.375 -0.5,0.375 -1,1.65625 -0.3125,0.46875 -0.75,1.1875 -0.40625,0.5 -0.71875,0.4375 -0.5,0.15625 -0.5625,0 -0.4375,-0.09375 -0.46875,-0.25 -0.75,-0.71875 -0.40625,-0.625 -0.25,-0.65625 -0.125,-0.53125 -0.375,-0.40625 -1.03125,-0.75 L 710.5,32 l -0.84375,-0.21875 -0.65625,0 -0.46875,0.125 -0.75,1.0625 -0.9375,1.125 -0.65625,0.71875 -0.625,0.5625 -0.78125,0.28125 L 704,35.8125 703.09375,35.75 702.4375,35.5625 702,35.28125 699.8125,32.75 l -0.90625,-0.90625 -0.875,-0.65625 -0.3125,-0.03125 -1.03125,0.09375 -1.90625,0.46875 -1.5625,0.84375 -0.5,0.4375 -0.0625,0.59375 0.15625,0.40625 0,0.53125 L 692.5,35 l -0.0625,0.90625 -0.40625,1.40625 -0.59375,1 -0.375,0.9375 -2.15625,3.1875 -0.5625,0.65625 -1.09375,0.84375 -0.6875,0.6875 -0.84375,0.5625 -1.3125,0.59375 -1.59375,0.59375 -2.09375,0.5 -0.25,0.125 -2.34375,0.5 -2.4375,-0.21875 -2.375,-0.9375 -1.25,-2.0625 -2.96875,-2.03125 -2.0625,-2.125 -1.6875,-0.9375 -2.21875,-2.96875 0.25,0.40625 -0.28125,-0.03125 -0.4375,0.0625 -0.34375,0.0625 -0.65625,0.0625 -0.28125,0.03125 -0.53125,0 -0.0937,-0.03125 -0.46875,-0.125 -0.125,-0.03125 -0.625,-0.1875 -0.90625,-0.3125 -0.75,-0.34375 -0.125,-0.03125 -0.6875,-0.3125 -0.46875,-0.25 -0.3125,-0.1875 -1.21875,-0.875 -0.25,-0.15625 -0.90625,-0.5625 -0.96875,-0.59375 -0.3125,-0.15625 -0.5625,-0.21875 -0.34375,-0.15625 -0.25,-0.03125 -0.75,-0.125 -0.3125,-0.03125 -1.8125,-0.46875 -0.21875,-0.09375 -3.3125,-1.21875 0,-0.09375 -1.59375,-0.5 L 642.375,29.3125 641.3125,28.90625 640.75,28.6875 640,28.34375 638.96875,27.53125 638.40625,26.6875 638.25,26.5 l -0.3125,-0.40625 -0.40625,-0.40625 -0.5,-0.375 -0.6875,-0.4375 -0.375,-0.1875 L 635.5,24.5 635.0625,24.28125 634.59375,24 l -0.5625,-0.09375 -0.53125,-0.125 -0.6875,-0.125 -0.5,0 L 632,23.625 l -0.15625,0 -0.75,-0.15625 -0.125,0 -0.5625,-0.28125 -0.125,-0.09375 -0.53125,-0.3125 -0.34375,-0.21875 -0.125,-0.125 -0.375,-0.34375 L 628.84375,22 628.375,21.53125 628.09375,21.21875 627.625,20.0625 627.4375,19.75 l -0.21875,-0.4375 -0.5,-0.9375 -0.34375,-0.625 -0.28125,-0.5625 -0.625,-1.09375 -0.5625,-0.9375 -0.125,-0.21875 -0.5,-0.90625 -0.25,-0.5 -0.46875,0 -2.625,0.0625 -1.625,0.03125 -16,0.1875 -19.4375,0.15625 -42.0625,0.65625 -30.5625,0.03125 -12.59375,0.1875 -0.5625,0 -37.90625,0.0625 -21.6875,-0.09375 0,0.125 -21.34375,0.09375 L 386.75,14.96875 378.15625,14.9375 326.0625,14.21875 276.9375,13.375 268.6875,13.15625 245.5,12.40625 241.625,12.3125 232.65625,12 200.03125,11.09375 194.5,10.9375 l -8.28125,-0.34375 0,-0.53125 -30.8125,-0.625 -0.25,0 -12.8125,-0.40625 -9.53125,-0.3125 -0.1875,0 L 126.8125,8.5 120.875,8.28125 118.53125,8.1875 l -4.5625,-0.21875 -2.1875,-0.09375 -4.125,-0.09375 -0.0937,0 L 101.375,7.4375 99.3125,7.34375 97.1875,7.21875 90.875,6.90625 82.15625,6.5625 81.75,6.5625 78.1875,6.40625 77.28125,6.375 74.4375,6.25 72.375,6.1875 65.46875,5.875 65.125,5.875 64.34375,5.8125 63,5.78125 55.9375,5.4375 53.90625,5.34375 52.875,5.28125 52,5.25 47.8125,5.03125 45.75,4.90625 l -2.53125,-0.125 -12.3125,-0.625 -9.4375,-0.5 -3.8125,-0.1875 z m 833.28125,140.5 0.53125,23.84375 -79.125,1.65625 0.71875,31.21875 73.625,-1.5625 0.53125,23.75 -73.625,1.53125 0.875,38.34375 81.9375,-1.71875 0.53125,23.71875 -22.03125,0.46875 c 4.09814,1.77027 7.72768,3.98386 10.875,6.625 10.0174,8.3463 15.3742,19.62165 16.125,33.84375 l -31.25,1.9375 c -1.4827,-7.9368 -4.46785,-13.59685 -8.96875,-16.96875 -4.4319,-3.4435 -11.03745,-5.0966 -19.84375,-4.9375 -9.0884,0.1645 -16.1746,2.173 -21.25,6 -3.2679,2.4553 -4.8852,5.70305 -4.8125,9.71875 0.0663,3.6636 1.69675,6.7619 4.84375,9.3125 4.0052,3.2399 13.62355,6.52605 28.90625,9.84375 15.2824,3.3178 26.6107,6.85025 33.9375,10.59375 7.3956,3.6719 13.19885,8.8186 17.40625,15.4375 4.2763,6.5474 6.47895,14.7073 6.65625,24.5 0.1606,8.8769 -2.1462,17.2236 -6.9375,25.0625 -4.7916,7.8389 -11.64485,13.75125 -20.59375,17.71875 -8.9504,3.8972 -20.1688,5.97525 -33.625,6.21875 -19.5857,0.3544 -34.7146,-3.89085 -45.375,-12.71875 -10.6617,-8.8984 -17.17445,-21.98705 -19.53125,-39.28125 l 30.40625,-3.53125 c 2.0165,10.1824 5.8475,17.6226 11.5,22.3125 5.7227,4.6888 13.33265,6.95335 22.84375,6.78125 10.0745,-0.1823 17.59765,-2.4311 22.59375,-6.75 5.0651,-4.3905 7.5407,-9.44965 7.4375,-15.15625 -0.0662,-3.6634 -1.2077,-6.72195 -3.4375,-9.21875 -2.1608,-2.5684 -5.9239,-4.7572 -11.3125,-6.5625 -3.6866,-1.2018 -12.0953,-3.3075 -25.1875,-6.3125 -16.8428,-3.8533 -28.6896,-8.751 -35.5625,-14.6875 -9.6653,-8.3525 -14.5907,-18.64755 -14.8125,-30.90625 -0.1428,-7.8905 1.9352,-15.30455 6.25,-22.21875 4.0798,-6.50097 9.85629,-11.58693 17.34375,-15.28125 l -24.125,0.5 -3.21875,-140.8125 108.75,-2.3125 z m -140.15625,2.96875 3.1875,139.125 0.15625,0 1.78125,98.0625 c 0.2321,12.8222 -0.71435,22.71115 -2.84375,29.65625 -2.8663,9.0726 -8.23215,16.4232 -16.09375,22.0625 -7.8629,5.5689 -18.31025,8.48295 -31.34375,8.71875 -15.2881,0.2766 -27.13415,-3.78065 -35.53125,-12.15625 -8.3984,-8.4459 -12.78625,-20.945 -13.15625,-37.5 L 646.34375,391 c 0.5128,8.8706 1.9292,15.09605 4.25,18.71875 3.4824,5.5045 8.68955,8.21875 15.59375,8.09375 6.9747,-0.1262 11.8704,-2.1899 14.6875,-6.1875 2.8159,-4.068 4.1019,-12.36585 3.875,-24.90625 l -1.8125,-100.09375 0.15625,0 -60.03125,-88.84375 2.09375,91.84375 -27.5,0.5625 L 594.4375,149.375 623.25,148.78125 685.40625,241.5625 683.25,147.5 710.78125,146.9375 z M 899.75,335.96875 l 0.65625,19.21875 -19.1875,0.65625 -0.6875,-19.1875 19.21875,-0.6875 z m 1.84375,53.375 0.5,13.71875 c 0.1941,5.5566 -0.155,9.93475 -1,13.15625 -0.8435,3.2672 -2.55815,6.2306 -5.15625,8.875 -2.5527,2.6427 -5.85815,4.7744 -9.90625,6.375 L 882,423.65625 c 3.8268,-1.4105 6.53365,-3.25935 8.09375,-5.59375 1.5601,-2.3346 2.32215,-5.4041 2.28125,-9.1875 l -9.3125,0.3125 -0.65625,-19.1875 19.1875,-0.65625 z"
     transform="matrix(10,0,0,10,-34366,-16378)"
     id="Nebraska"
     style="fill:#f0db4f;fill-opacity:1;stroke:#000000;stroke-width:0;stroke-linejoin:round;stroke-miterlimit:4;stroke-dasharray:none" />
</svg>
