<?xml version="1.0" encoding="UTF-8" standalone="no"?>
<!-- Created with Inkscape (http://www.inkscape.org/) -->

<svg
   xmlns:dc="http://purl.org/dc/elements/1.1/"
   xmlns:cc="http://creativecommons.org/ns#"
   xmlns:rdf="http://www.w3.org/1999/02/22-rdf-syntax-ns#"
   xmlns:svg="http://www.w3.org/2000/svg"
   xmlns="http://www.w3.org/2000/svg"
   version="1.2"
   width="1000"
   height="463.90634"
   viewBox="-34366 -16378 10000 4639.0635"
   preserveAspectRatio="xMinYMin meet"
   id="svg3023">
  <style type="text/css">@import "../css/logo.css";</style>
  <metadata
     id="metadata3237">
    <rdf:RDF>
      <cc:Work
         rdf:about="">
        <dc:format>image/svg+xml</dc:format>
        <dc:type
           rdf:resource="http://purl.org/dc/dcmitype/StillImage" />
        <dc:title></dc:title>
      </cc:Work>
    </rdf:RDF>
  </metadata>
  <defs
     id="defs3235" />
  <path
     d="m 17.65625,3.46875 0,0.21875 -0.5,10.09375 -2.25,47.6875 -3.75,78.03125 -0.59375,12.71875 -0.0625,0.65625 -2.0625,44.25 0,0.4375 -0.9375,19.625 -1.1875,25.375 -2.65625,55.1875 -0.1875,3.25 53.84375,2.1875 21.375,0.875 43.375,1.625 1.625,0.0625 37.34375,1.1875 3.75,0.125 64.21875,1.96875 -0.875,37.5625 -0.1875,7.5625 -0.8125,38.40625 -0.3125,13.5 -1.125,51.375 21.40625,0.5 9.4375,0.1875 0.21875,0 1.9375,-150.34375 29.8125,0.375 60.8125,102.15625 1.3125,-101.34375 28.46875,0.375 L 377.125,460 l 4.46875,0.0625 28.0625,0.1875 1.9375,-150.5 112.5,1.46875 -0.34375,25.6875 -81.875,-1.0625 -0.4375,33.625 76.1875,1 -0.3125,25.5625 -76.1875,-1 -0.53125,41.3125 84.75,1.09375 -0.28125,22.8125 16.96875,-0.0937 9.53125,-0.0625 2.28125,0 12.875,-0.0937 7.71875,-0.0625 1.75,-0.0312 c -5.93116,-1.97996 -11.00336,-5.04534 -15.1875,-9.21875 -8.2253,-8.2718 -12.5127,-20.5364 -12.875,-36.75 l 28.8125,-3.8125 c 0.5023,8.6878 1.88345,14.79585 4.15625,18.34375 3.4106,5.391 8.4881,8.02855 15.25,7.90625 6.8309,-0.1236 11.64715,-2.1472 14.40625,-6.0625 2.7578,-3.984 4.00335,-12.12435 3.78125,-24.40625 l -1.75,-98 30.53125,-0.5625 1.71875,96.0625 c 0.2272,12.5578 -0.69575,22.22935 -2.78125,29.03125 -2.8073,8.8855 -8.0505,16.07075 -15.75,21.59375 -2.9548,2.09274 -6.29965,3.83251 -10,5.15625 l 14.5625,-0.25 26.21875,-0.5 28.125,-0.46875 4.0625,-0.0625 7.3125,-0.21875 11.46875,-0.3125 c -7.44593,-2.07393 -13.78903,-5.31514 -19.03125,-9.65625 -10.442,-8.7148 -16.8169,-21.53105 -19.125,-38.46875 l 29.75,-3.4375 c 1.9751,9.9724 5.74535,17.25055 11.28125,21.84375 5.6047,4.5922 13.0602,6.82485 22.375,6.65625 9.8668,-0.1785 17.232,-2.3951 22.125,-6.625 4.9608,-4.3 7.4135,-9.25475 7.3125,-14.84375 -0.065,-3.5879 -1.1911,-6.58595 -3.375,-9.03125 -2.1163,-2.5156 -5.81615,-4.6694 -11.09375,-6.4375 -3.6104,-1.1771 -11.83415,-3.2445 -24.65625,-6.1875 -16.4955,-3.7738 -28.11255,-8.5608 -34.84375,-14.375 -9.466,-8.1803 -14.31405,-18.27525 -14.53125,-30.28125 -0.1398,-7.7278 1.93045,-14.9782 6.15625,-21.75 4.2936,-6.8417 10.50905,-12.0823 18.65625,-15.75 8.2162,-3.6686 18.1517,-5.6014 29.8125,-5.8125 19.0437,-0.3446 33.4455,3.54355 43.1875,11.71875 9.8108,8.1743 15.0772,19.22725 15.8125,33.15625 L 757.4375,350 c -1.4522,-7.773 -4.37325,-13.29135 -8.78125,-16.59375 -4.3404,-3.3724 -10.8127,-4.99965 -19.4375,-4.84375 -8.9009,0.1611 -15.8418,2.1271 -20.8125,5.875 -3.2005,2.4048 -4.7588,5.5671 -4.6875,9.5 0.0649,3.588 1.63655,6.627 4.71875,9.125 3.9226,3.173 13.345,6.3758 28.3125,9.625 14.9675,3.2493 26.04305,6.7088 33.21875,10.375 7.2433,3.5962 12.9419,8.6425 17.0625,15.125 4.1882,6.4122 6.35745,14.4092 6.53125,24 0.1573,8.694 -2.12,16.8853 -6.8125,24.5625 -4.6927,7.6774 -11.4232,13.45795 -20.1875,17.34375 -1.48866,0.64817 -3.04033,1.23627 -4.65625,1.78125 l 3.03125,-0.0625 38.0625,-1.09375 9.46875,-0.28125 2.6875,-0.0937 c 2.56204,-1.15645 4.49482,-2.60049 5.75,-4.34375 1.6406,-2.2786 2.50265,-5.31115 2.59375,-9.09375 l -9.3125,0 0,-19.21875 19.21875,0 0,13.75 c 0,5.5599 -0.4805,9.9349 -1.4375,13.125 -0.55615,1.88021 -1.42164,3.63189 -2.5625,5.28125 l 34.625,-1.40625 0.40625,0 25.8125,-0.90625 26.0625,-1.125 1.15625,-0.0625 24.375,-1.15625 27.53125,-1.375 10.84375,-0.4375 1.28125,-0.0937 11.40625,-0.5625 3.625,-0.0937 -0.25,-1.03125 -0.59375,-0.78125 -2.5,-0.875 -1.53125,-1.40625 -1.6875,-0.21875 -0.9375,0.34375 -1.09375,0.46875 -0.9375,0.0312 -0.6875,-0.125 -0.875,-0.3125 -0.96875,-0.78125 -0.53125,-0.75 -0.375,-0.9375 -0.21875,-0.75 -0.1875,-0.96875 0.15625,-0.71875 0.1875,-0.46875 0.4375,-0.46875 0.375,-0.5 0.1875,-0.5 0.0625,-0.5625 -0.15625,-0.46875 -0.1875,-0.6875 -0.0312,-0.5625 0.125,-0.5625 0.28125,-0.5 0.28125,-0.28125 0.59375,-0.5625 0.40625,-0.40625 0.15625,-0.5 0.0625,-0.53125 -0.0937,-0.625 -0.15625,-0.53125 -0.28125,-0.46875 -0.34375,-0.34375 -0.625,-0.28125 -0.5625,-0.0937 -0.53125,0.0625 -0.84375,-0.0937 -0.84375,-0.59375 -0.59375,-0.9375 L 980.9375,424 l -1.03125,-0.90625 -2.0625,-0.75 -2.25,-2.28125 -0.40625,-1.03125 -0.0937,-1.28125 1.1875,-2.53125 0.0625,-1.53125 -0.21875,-0.96875 -0.71875,-1.1875 -1.53125,-0.84375 -3.71875,0.15625 -2.46875,-1.1875 -1.0625,-0.46875 -0.3125,-0.3125 -0.125,-0.4375 0,-0.59375 0.5,-2.28125 -0.3125,-0.75 -1.0625,-0.875 -2.28125,-0.21875 -1.96875,-1.4375 -1.34375,-0.5625 -0.84375,0.125 -3.09375,1.34375 -0.71875,-0.125 -0.6875,-0.5625 -0.0937,-0.75 0.4375,-1.03125 2.625,-1.375 0.5,-0.53125 0.28125,-0.96875 -0.59375,-1.75 -1.6875,-1.9375 -0.46875,-3.03125 -1.90625,-3.1875 -0.3125,-1.0625 0.4375,-1.375 0.125,-0.5 0,-0.65625 -0.0937,-0.5625 -0.28125,-0.71875 -0.28125,-0.65625 -0.5,-0.65625 -0.84375,-0.90625 -0.8125,-0.5 -1.75,-1.21875 -0.34375,-0.71875 0.0312,-1.15625 0.0625,-1.28125 -0.0625,-0.75 -0.25,-0.6875 -0.40625,-0.71875 4.21875,-2 0.625,-0.96875 0.28125,-2.15625 -0.46875,-1.25 -0.75,-0.46875 -1.1875,-1.84375 -1.6875,0.40625 -0.8125,0.5625 -0.125,4.25 -1.25,1.09375 -0.1875,-0.3125 -0.5,-0.5 -0.9375,-0.0937 -0.53125,0.25 -1.1875,0.25 -1.3125,0.0312 -1.28125,-0.28125 -0.75,-0.46875 -0.3125,-0.75 0.5625,-1.78125 0,-0.8125 -1.40625,-2.84375 0.0625,-0.75 0.875,-1.125 1.3125,-1.0625 0.46875,-1.71875 -0.3125,-0.78125 -2.09375,-1.75 -0.4375,-2.71875 -0.5625,-1.0625 -2.3125,-2.1875 -3.0625,-0.53125 -2.40625,-1.375 -1.21875,-3.6875 -0.84375,-0.78125 -2.71875,-1.28125 -0.46875,-1.0625 -0.34375,-1.6875 0.6875,-2.25 1.1875,-1.375 3.03125,-1.8125 0.59375,-0.84375 0.40625,-1.3125 0,-0.28125 -0.125,-0.53125 -0.3125,-0.59375 -0.40625,-0.71875 -0.15625,-0.5 -0.3125,-0.65625 -0.125,-0.75 0,-0.5625 0.0937,-0.59375 0.375,-0.8125 0.15625,-0.65625 L 930,325.125 l 0,-0.625 -0.40625,-0.75 -0.4375,-0.6875 -0.1875,-0.4375 -0.15625,-0.5625 0.125,-0.625 0.15625,-0.46875 0.21875,-0.53125 0.3125,-0.28125 0.53125,-0.1875 0.625,-0.25 0.6875,-0.125 0.5,-0.3125 0.34375,-0.34375 0.40625,-0.5625 0.1875,-0.875 0,-1.34375 -0.15625,-0.4375 -0.53125,-0.59375 -0.625,-0.59375 -0.625,-0.59375 -0.59375,-0.75 -0.625,-1.28125 -0.21875,-0.84375 -0.125,-0.96875 0.0625,-0.59375 0.0625,-0.8125 0.1875,-0.6875 0.21875,-0.625 0.28125,-0.53125 0.125,-0.65625 0,-0.625 -0.0312,-0.65625 -0.25,-0.65625 -0.1875,-0.5 -0.4375,-0.53125 -0.34375,-0.28125 -0.65625,-0.25 -0.78125,-0.28125 -0.5625,-0.25 -0.46875,-0.28125 -0.40625,-0.3125 -0.0625,-0.125 -0.3125,-0.28125 -0.34375,-0.59375 -0.125,-0.65625 0.5625,-1.59375 0.5,-1 0,-1.15625 -0.34375,-0.84375 -1.46875,-1.34375 -0.0312,-0.0312 -0.6875,-0.6875 -0.34375,-0.96875 0.0312,-0.40625 0.1875,-0.4375 0.5,-0.5 0.34375,-0.40625 0.40625,-0.46875 0.40625,-0.6875 0.25,-0.46875 0.15625,-0.6875 -0.0937,-0.53125 -0.1875,-0.78125 -0.1875,-0.59375 -0.125,-0.78125 -0.125,-0.9375 0.0937,-0.6875 -0.0625,-0.625 -0.0937,-0.4375 -0.25,-0.625 -0.53125,-0.6875 -0.3125,-0.59375 -0.3125,-0.59375 -0.40625,-0.78125 -0.125,-0.71875 0,-0.71875 0.125,-0.53125 0.0625,-0.3125 0.15625,-0.5 0.375,-0.375 0.25,-0.21875 0.21875,0.0937 0.0625,0 0.59375,0.0625 0.53125,0.21875 0.4375,0.1875 0.53125,-0.0625 0.5,-0.21875 0.34375,-0.34375 0.21875,-0.46875 -0.15625,-0.59375 -0.21875,-0.375 -0.34375,-0.5 -0.6875,-0.46875 -0.875,-0.28125 -0.6875,0.0937 -1.09375,0 -0.21875,0 -0.46875,0.0625 -0.78125,0.0312 -1.03125,0.15625 -0.8125,0.0312 -0.75,0 -0.5,-0.25 -0.5,-0.21875 -0.0937,0 -0.53125,-0.625 -0.28125,-0.53125 0,-0.8125 0,-0.59375 0.25,-0.53125 0.5,-0.84375 0.59375,-1 0.375,-0.75 0.0937,-0.53125 -0.0625,-0.875 -0.0937,-0.59375 L 918.8125,265 918.5,264.34375 l -0.34375,-0.46875 -0.21875,-0.46875 -0.21875,-0.4375 -0.125,-0.5 -0.46875,-1.8125 -0.4375,-1.625 -0.0625,-1.28125 0.28125,-0.75 0.875,-0.40625 1.03125,0 0.46875,0.1875 0.28125,0.4375 -0.0312,0.625 -0.4375,0.90625 -0.1875,0.75 0.125,1.21875 0.21875,0.125 0.21875,-0.0312 2.125,-1.15625 0.84375,-0.6875 0.375,-0.625 0.1875,-1.03125 -0.0937,-1.34375 -0.1875,-0.5625 -0.34375,-0.59375 -0.625,-0.59375 -0.4375,-0.28125 -0.125,-0.0625 -0.59375,-0.1875 -0.6875,-0.0937 -0.65625,0.125 -0.6875,0.0625 -0.71875,-0.0937 -1.09375,-0.25 -0.9375,-0.5 -0.9375,-0.71875 -0.25,-0.28125 L 914,251.53125 913.71875,251.125 913.5,250.53125 913.4375,250 l 0.125,-0.40625 0.21875,-0.21875 0.4375,-0.25 0.53125,-0.4375 0.46875,-0.3125 0.5,-0.34375 0.46875,-0.5625 0.15625,-0.3125 0.1875,-0.5625 -0.0312,-0.65625 -0.34375,-0.59375 -0.3125,-0.59375 -0.4375,-0.71875 -0.28125,-0.53125 0,-0.46875 0.125,-0.46875 0.1875,-0.5625 0.25,-0.46875 0.25,-0.53125 0.0625,-0.40625 -0.125,-0.84375 -0.1875,-0.875 -0.1875,-0.53125 0.0937,-0.71875 0.21875,-0.59375 0.3125,-0.5 0.4375,-0.40625 0.34375,-0.3125 0.15625,-0.5 0.0937,-0.59375 -0.3125,-0.6875 -0.46875,-0.5625 -0.3125,-0.5 -0.5,-0.3125 -0.40625,-0.15625 -0.46875,-0.0625 -0.75,0 -0.59375,0.0312 -0.375,0.25 -0.53125,0.21875 -0.6875,0 -0.625,-0.375 -0.46875,-0.21875 -0.5625,-0.375 -0.5625,-0.1875 -0.5625,-0.15625 -0.65625,-0.125 -0.78125,-0.0625 -0.75,-0.25 -0.46875,-0.3125 -0.40625,-0.3125 -0.21875,-0.40625 -0.21875,-0.65625 0.0937,-0.40625 0.21875,-0.46875 0.25,-0.34375 0.34375,-0.25 0.46875,-0.4375 0.5,-0.3125 0.53125,-0.4375 0.40625,-0.40625 0.21875,-0.53125 0.125,-0.6875 -0.21875,-0.8125 -0.21875,-0.71875 -0.375,-0.84375 -0.375,-0.84375 -0.46875,-0.625 -0.71875,-0.59375 -0.5625,-0.15625 -0.875,0.125 -0.65625,0.46875 -0.1875,0.59375 -0.1875,0.71875 -0.0312,0.6875 -0.0625,0.40625 -0.28125,0.625 -0.34375,0.46875 -0.34375,0.3125 -0.96875,0.15625 -0.46875,0.0625 -0.46875,-0.0625 -0.65625,-0.1875 -0.0625,-0.0312 -0.3125,-0.125 -0.625,0 -0.53125,-0.1875 -0.5625,-0.4375 -0.46875,-0.5 -0.6875,-1.03125 -0.28125,-0.59375 -0.28125,-0.75 0,-0.53125 0.0937,-0.6875 0.0937,-0.53125 0.21875,-0.53125 0.34375,-0.375 0.375,-0.59375 0.3125,-0.25 0.40625,-0.25 0.1875,-0.21875 0.1875,-0.375 -0.125,-0.3125 -0.25,-0.6875 -0.4375,-0.5 -1.0625,-0.53125 -1.1875,-0.625 -0.53125,-0.3125 -0.65625,-0.625 -0.3125,-0.5625 -0.21875,-0.53125 -0.0625,-0.53125 L 894,211.125 l 0.3125,-0.75 0.53125,-0.8125 0.375,-0.4375 0.25,-0.59375 0.21875,-0.6875 0.21875,-0.65625 0.0625,-0.90625 -0.15625,-0.71875 -0.28125,-0.65625 -0.46875,-0.78125 -0.65625,-0.5625 -0.59375,-0.71875 -0.53125,-0.5625 -0.375,-0.5625 -0.125,-0.625 -0.0625,-0.25 0.0625,-1.03125 0.0937,-0.40625 0.0312,-0.3125 0.40625,-0.40625 0.46875,-0.3125 0.375,-0.125 0.53125,0.0937 0.59375,0 0.65625,-0.125 0.625,0.0312 0.59375,-0.125 0.4375,-0.15625 0.25,-0.28125 0.0937,-0.40625 -0.0312,-0.625 L 897.6875,196 l -0.40625,-0.4375 -0.40625,-0.34375 -0.53125,-0.25 -0.84375,-0.28125 -0.375,-0.1875 -0.53125,-0.375 -0.3125,-0.46875 -0.0937,-0.65625 0.0312,-0.65625 0.15625,-0.65625 0.375,-0.71875 0.46875,-0.8125 0.5625,-1 0.71875,-1.3125 0.96875,-1.625 0.34375,-0.8125 0.125,-0.8125 0,-0.8125 -0.1875,-0.59375 -0.5625,-0.625 -0.34375,-0.25 -0.40625,-0.15625 -0.5,-0.0625 -0.5,-0.15625 -0.375,-0.0937 -0.3125,-0.1875 -0.53125,-0.4375 -0.5,-0.375 -0.3125,-0.375 -0.21875,-0.40625 -0.28125,-0.4375 -0.0937,-0.625 0.0937,-0.8125 L 893,177.5 l 0,-0.53125 -0.21875,-0.65625 -0.21875,-0.5 -0.25,-0.28125 -0.59375,-0.375 -0.59375,-0.34375 -0.6875,-0.375 -0.625,-0.40625 -0.15625,-0.15625 -0.375,-0.375 -0.40625,-0.78125 -0.25,-0.65625 -0.0625,-0.59375 -0.125,-0.625 -0.21875,-0.5 -0.59375,-0.78125 -0.40625,-0.5 -0.375,-0.53125 -0.0312,-0.46875 -0.0312,-0.375 0.1875,-0.28125 0.25,-0.1875 0.4375,-0.15625 0.4375,-0.1875 0.375,-0.34375 0.375,-0.34375 0.25,-0.46875 0.125,-0.625 0,-0.59375 -0.1875,-0.5 -0.21875,-0.5625 -0.1875,-0.71875 -0.1875,-0.53125 0.0312,-0.46875 0.0625,-0.53125 0.125,-0.5625 0.3125,-0.5 0.25,-0.5 0.15625,-0.78125 -0.0937,-0.5 -0.53125,-0.65625 -0.5625,-0.375 -0.5,-0.0312 -0.59375,-0.15625 -0.5625,0 -0.53125,0.0937 -0.5,0.125 -0.46875,0 -0.375,-0.0312 -0.375,-0.3125 -0.34375,-0.25 -0.25,-0.46875 -0.25,-0.625 0,-0.46875 0,-0.5 -0.0625,-0.5625 -0.0312,-0.65625 -0.0625,-0.15625 -0.25,-0.125 -0.5,-0.3125 -1.5,-0.0625 L 880,153.25 l -1,1.875 -1.3125,-0.15625 -0.5625,-0.71875 -0.0312,-0.40625 0.3125,-1.375 1.0625,-0.71875 0.59375,-0.90625 0.0937,-0.28125 0.0312,-0.46875 -0.25,-0.375 -0.0937,-0.46875 -0.84375,-0.53125 -0.21875,-0.0625 -0.5625,-0.375 -2.15625,0.5 -1.375,-0.625 -0.25,-0.46875 -0.0937,-0.1875 -0.15625,-0.40625 -0.46875,-1.21875 -0.1875,-1.5 0.125,-1.78125 0.78125,-1.75 0.28125,-1.65625 -0.34375,-1.75 -0.78125,-0.71875 -0.15625,-0.3125 -1.09375,-0.53125 -2.15625,-0.46875 -0.8125,-0.9375 -0.34375,-0.71875 -0.3125,-0.875 -0.90625,-0.84375 -1.65625,-0.875 -0.8125,-1.0625 -0.125,-0.5 -0.0625,-0.0937 -0.1875,-0.46875 -0.15625,-0.53125 0,-0.34375 -0.0312,-0.59375 0.0625,-0.34375 -0.0312,-0.40625 -0.0312,-0.28125 0.0312,-0.34375 -0.0625,-0.40625 -0.34375,-0.90625 -0.3125,-0.59375 -0.1875,-0.46875 -0.0937,-0.375 0.0312,-0.4375 0.0312,-0.0937 2.3125,-0.4375 1.5,-2.25 -0.75,-1.09375 0.0312,-1.15625 -0.375,-1.625 -0.96875,-1.3125 -1.625,-0.90625 -0.46875,-0.375 -1.1875,-1.84375 -0.4375,-2.46875 -0.15625,-1.15625 -0.25,-0.4375 -0.0312,-0.1875 -1.0625,-1.03125 L 856.5,105 l -1.1875,-2.125 0.1875,-1.625 0.875,-1.6875 -1.03125,-2.6875 0.0312,-2.4375 1.6875,-2.15625 0.25,-0.25 0.5625,-0.6875 0.4375,-0.625 0.34375,-0.8125 0.0937,-0.9375 0.0625,-1.21875 -0.0312,-1.75 -0.3125,-1.15625 -0.40625,-0.9375 -0.59375,-0.78125 -0.90625,-0.53125 -0.9375,-0.21875 -1.25,-0.25 -1.5,0.1875 -1.6875,0.28125 -0.1875,0 -0.75,0.28125 -0.78125,0.28125 -0.53125,0.28125 -0.0937,0.0625 -0.375,0.125 -0.65625,0.25 -0.25,0.09375 -1.0625,0 -0.125,-0.03125 -0.4375,-0.21875 -0.40625,-0.1875 -0.5,-0.53125 -0.3125,-0.3125 -0.25,-0.28125 -0.40625,-0.625 -0.5,-0.71875 -0.28125,-0.40625 -0.125,-0.25 -0.59375,-0.90625 -0.53125,-0.46875 -0.5,-0.40625 -0.5625,-0.1875 -0.25,-0.0625 -1.03125,-0.15625 -0.125,0.03125 -0.4375,0.09375 -0.3125,0.125 -0.4375,0.125 -0.3125,0.09375 -0.15625,0.09375 -0.625,0.375 -0.59375,0.375 -0.0625,0.0625 -0.78125,0.65625 -0.21875,0.15625 -0.375,0.25 -0.5625,0.21875 -0.3125,0.125 -0.21875,0 -0.4375,0.03125 -0.5,-0.28125 -0.65625,-0.34375 -0.0937,-0.0625 -0.65625,-0.65625 -0.0312,-0.4375 0,-0.15625 0,-0.1875 0.0937,-0.25 0.15625,-0.40625 0.0937,-0.625 0.0312,-0.25 -0.0625,-0.34375 -0.0625,-0.59375 -0.125,-0.53125 -0.0312,-0.15625 -0.25,-0.4375 -0.25,-0.4375 -0.0625,-0.09375 -0.25,-0.4375 -0.25,-0.21875 -0.4375,-0.40625 -0.4375,-0.34375 -0.21875,-0.21875 -0.1875,-0.125 -0.9375,-0.9375 -0.78125,-0.625 -0.53125,-0.4375 -0.375,-0.28125 -0.59375,-0.4375 -0.3125,-0.21875 -0.59375,-0.40625 -0.875,-0.53125 -0.15625,-0.09375 -0.4375,-0.4375 -1.125,-0.875 -0.15625,-0.15625 -0.84375,-1.0625 -0.4375,-0.59375 0.0937,-0.5 0.21875,-1.28125 0.0312,-0.15625 0.21875,-0.375 0.34375,-0.53125 0.3125,-0.5 0.0937,-0.09375 0.34375,-0.40625 0.25,-0.28125 0.21875,-0.40625 0.8125,-1.53125 0.0625,-0.09375 -0.8125,-1.21875 -0.15625,-0.25 -0.125,-0.125 -0.625,-0.1875 -0.5,-0.15625 -0.46875,-0.1875 -0.40625,-0.125 -0.40625,0 -0.5,0 -0.40625,-0.03125 -0.1875,0 -0.21875,-0.03125 -0.84375,0 -0.1875,0.03125 -0.6875,0.125 -0.1875,0.0625 -0.3125,0.03125 -1.96875,0.40625 -0.0937,0.03125 -0.59375,-0.03125 -0.59375,-0.03125 -0.25,0 -0.65625,-0.15625 -0.6875,-0.125 -0.53125,-0.375 -0.53125,-0.375 -0.0937,-0.09375 -0.4375,-0.3125 -0.0625,-0.53125 -0.0937,-0.6875 0,-0.1875 -0.0312,-0.28125 -0.0312,-0.625 0,-0.09375 -0.0312,-0.65625 -0.0312,-0.125 -0.46875,-0.71875 -0.46875,-0.5625 -0.5625,-0.28125 -0.53125,-0.09375 -0.625,-0.09375 -0.125,-0.03125 -0.90625,-0.46875 -1.28125,-1 -0.375,-0.15625 -0.59375,-0.4375 -0.78125,-0.25 -0.8125,-0.25 -0.46875,-0.15625 -0.28125,-0.0625 -0.6875,-0.15625 -1.03125,-0.25 -0.375,-0.09375 -0.3125,0 -1.5625,-0.0625 -0.40625,-0.03125 -0.0625,0.03125 -0.5625,0.28125 -0.4375,0.1875 -0.34375,0.25 -0.21875,0.15625 -0.6875,0.84375 -0.375,0.3125 -0.53125,0.21875 -1.03125,-0.0625 -0.25,-0.125 -0.65625,-0.5 -0.0312,-0.125 0.0625,-0.46875 0.125,-0.78125 0.0625,-0.09375 0.15625,-0.46875 0.0312,-0.28125 0.0625,-0.46875 -0.125,-0.28125 -0.0937,-0.46875 -0.28125,-0.4375 -0.40625,-0.59375 -0.0937,-0.09375 -0.46875,-0.4375 -1,-0.53125 -0.25,-0.03125 -0.5625,-0.0625 -0.4375,-0.0625 -0.5,0.15625 -0.4375,-0.0625 -0.1875,0.0625 -0.34375,0.125 -0.53125,0 -0.375,-0.0625 -0.65625,-0.125 -0.625,0.03125 -0.1875,-0.03125 -0.4375,-0.0625 -1.09375,0.0625 -0.6875,0.125 -0.625,0.09375 -0.65625,0.09375 -0.46875,0.03125 -0.21875,0 -1.0625,-0.09375 -1.4375,-0.1875 -0.25,-0.0625 -0.875,-0.21875 -0.375,-0.0625 -0.34375,-0.0625 -0.59375,-0.1875 -0.5625,-0.1875 -0.59375,-0.125 L 775,43.375 774.59375,43.25 774.25,43.0625 774.15625,42.71875 774.03125,42.25 773.875,41 l -0.1875,-0.34375 -0.1875,-0.4375 -0.375,-0.3125 -0.0937,-0.09375 -0.5625,-0.25 -0.0937,-0.03125 -0.78125,-0.25 -0.0937,0 -1.46875,-0.40625 -3.125,-0.28125 -1.0625,-0.53125 L 764.9375,35.28125 764.875,33 l -0.25,-0.4375 -3.3125,-1.28125 -2.03125,0.5625 -2.4375,-0.4375 -1.3125,-1.1875 -0.0625,0 -0.46875,0 L 754.53125,30.125 753.875,29.65625 753.75,29.59375 752.625,29.75 751.71875,29.53125 750.53125,29.125 749.5625,29 l -1.34375,0.21875 -0.21875,0.125 -0.125,0.375 -0.28125,0.46875 -0.59375,0.28125 -0.0625,0 -1.5,0.0625 -0.75,-0.15625 -0.65625,0 -0.65625,0.25 -0.71875,0.46875 -0.75,0.75 -0.4375,0.65625 -1.15625,0.8125 -0.65625,0.15625 L 738.9375,33.375 738.5,33.1875 738.09375,32.625 737.75,32.28125 737.34375,32.1875 736.53125,32.25 736.375,32.0625 736.3125,31.5 l 0,-0.875 -0.15625,-0.375 -0.25,-0.0625 -0.375,0.03125 -0.71875,0.21875 -3.09375,1 -0.375,0.25 -0.71875,0.8125 -0.875,0.78125 -0.40625,0.25 -2.21875,0.4375 -2.25,0.34375 -0.78125,0.0625 -0.5625,-0.03125 -0.4375,-0.15625 -0.28125,-0.25 -0.21875,-0.4375 -0.0937,-0.5625 0.0312,-0.75 -0.0625,-0.5625 -0.125,-0.375 -0.25,-0.15625 -0.6875,-0.09375 -1.0625,0.15625 -0.6875,0.375 -0.5,0.375 -1,1.65625 -0.3125,0.46875 -0.75,1.1875 -0.40625,0.5 -0.71875,0.4375 -0.5,0.15625 -0.5625,0 -0.4375,-0.09375 -0.46875,-0.25 -0.75,-0.71875 -0.40625,-0.625 -0.25,-0.65625 -0.125,-0.53125 -0.375,-0.40625 -1.03125,-0.75 L 710.5,32 l -0.84375,-0.21875 -0.65625,0 -0.46875,0.125 -0.75,1.0625 -0.9375,1.125 -0.65625,0.71875 -0.625,0.5625 -0.78125,0.28125 L 704,35.8125 703.09375,35.75 702.4375,35.5625 702,35.28125 699.8125,32.75 l -0.90625,-0.90625 -0.875,-0.65625 -0.3125,-0.03125 -1.03125,0.09375 -1.90625,0.46875 -1.5625,0.84375 -0.5,0.4375 -0.0625,0.59375 0.15625,0.40625 0,0.53125 L 692.5,35 l -0.0625,0.90625 -0.40625,1.40625 -0.59375,1 -0.375,0.9375 -2.15625,3.1875 -0.5625,0.65625 -1.09375,0.84375 -0.6875,0.6875 -0.84375,0.5625 -1.3125,0.59375 -1.59375,0.59375 -2.09375,0.5 -0.25,0.125 -2.34375,0.5 -2.4375,-0.21875 -2.375,-0.9375 -1.25,-2.0625 -2.96875,-2.03125 -2.0625,-2.125 -1.6875,-0.9375 -2.21875,-2.96875 0.25,0.40625 -0.28125,-0.03125 -0.4375,0.0625 -0.34375,0.0625 -0.65625,0.0625 -0.28125,0.03125 -0.53125,0 -0.0937,-0.03125 -0.46875,-0.125 -0.125,-0.03125 -0.625,-0.1875 -0.90625,-0.3125 -0.75,-0.34375 -0.125,-0.03125 -0.6875,-0.3125 -0.46875,-0.25 -0.3125,-0.1875 -1.21875,-0.875 -0.25,-0.15625 -0.90625,-0.5625 -0.96875,-0.59375 -0.3125,-0.15625 -0.5625,-0.21875 -0.34375,-0.15625 -0.25,-0.03125 -0.75,-0.125 -0.3125,-0.03125 -1.8125,-0.46875 -0.21875,-0.09375 -3.3125,-1.21875 0,-0.09375 -1.59375,-0.5 L 642.375,29.3125 641.3125,28.90625 640.75,28.6875 640,28.34375 638.96875,27.53125 638.40625,26.6875 638.25,26.5 l -0.3125,-0.40625 -0.40625,-0.40625 -0.5,-0.375 -0.6875,-0.4375 -0.375,-0.1875 L 635.5,24.5 635.0625,24.28125 634.59375,24 l -0.5625,-0.09375 -0.53125,-0.125 -0.6875,-0.125 -0.5,0 L 632,23.625 l -0.15625,0 -0.75,-0.15625 -0.125,0 -0.5625,-0.28125 -0.125,-0.09375 -0.53125,-0.3125 -0.34375,-0.21875 -0.125,-0.125 -0.375,-0.34375 L 628.84375,22 628.375,21.53125 628.09375,21.21875 627.625,20.0625 627.4375,19.75 l -0.21875,-0.4375 -0.5,-0.9375 -0.34375,-0.625 -0.28125,-0.5625 -0.625,-1.09375 -0.5625,-0.9375 -0.125,-0.21875 -0.5,-0.90625 -0.25,-0.5 -0.46875,0 -2.625,0.0625 -1.625,0.03125 -16,0.1875 -19.4375,0.15625 -42.0625,0.65625 -30.5625,0.03125 -12.59375,0.1875 -0.5625,0 -37.90625,0.0625 -21.6875,-0.09375 0,0.125 -21.34375,0.09375 L 386.75,14.96875 378.15625,14.9375 326.0625,14.21875 276.9375,13.375 268.6875,13.15625 245.5,12.40625 241.625,12.3125 232.65625,12 200.03125,11.09375 194.5,10.9375 l -8.28125,-0.34375 0,-0.53125 -30.8125,-0.625 -0.25,0 -12.8125,-0.40625 -9.53125,-0.3125 -0.1875,0 L 126.8125,8.5 120.875,8.28125 118.53125,8.1875 l -4.5625,-0.21875 -2.1875,-0.09375 -4.125,-0.09375 -0.0937,0 L 101.375,7.4375 99.3125,7.34375 97.1875,7.21875 90.875,6.90625 82.15625,6.5625 81.75,6.5625 78.1875,6.40625 77.28125,6.375 74.4375,6.25 72.375,6.1875 65.46875,5.875 65.125,5.875 64.34375,5.8125 63,5.78125 55.9375,5.4375 53.90625,5.34375 52.875,5.28125 52,5.25 47.8125,5.03125 45.75,4.90625 l -2.53125,-0.125 -12.3125,-0.625 -9.4375,-0.5 -3.8125,-0.1875 z m 268.8125,357.46875 -1.25,97.6875 13.40625,0.21875 4.75,0.0937 5.375,0.0937 2.65625,0.0312 34.125,0.5625 0.21875,0 -59.28125,-98.6875 z m 527.71875,7.375 19.21875,0 0,19.21875 -19.21875,0 0,-19.21875 z"
     transform="matrix(10,0,0,10,-34366,-16378)"
     id="Nebraska"
     style="stroke:#000000;stroke-width:0;stroke-linejoin:round;stroke-miterlimit:4;stroke-dasharray:none" />
  <!-- <flowRoot
     id="flowRoot3200"
     xml:space="preserve"
     style="font-size:40px;font-style:normal;font-weight:normal;line-height:125%;letter-spacing:0px;word-spacing:0px;fill:#000000;fill-opacity:1;stroke:none;font-family:Sans"><flowRegion
       id="flowRegion3202"><rect
         width="17"
         height="51"
         x="201"
         y="409.90634"
         id="rect3204" /></flowRegion><flowPara
       id="flowPara3206" /></flowRoot> --></svg>
